<svg id="Sticker" xmlns="http://www.w3.org/2000/svg" viewBox="0 0 461.67 336.33"><g id="Stanzform"><path d="M367,141.32l-5.43.75,5.91-5.17-1.32-1.13c-.27-.23-6.67-5.68-11.74-6.78a20.81,20.81,0,0,0-4.19-.46L400.38,93.6l-1.72-1.24a80,80,0,0,0-18-9.22c-13.73-4.89-25.74-4.2-34.75,2l-68,49.11-20.87-.48c-2.73-2.05-18-12.46-40.1-7.55-25.44,5.65-30.65,15.32-33.44,20.52a13.74,13.74,0,0,1-1.24,2.06,41.25,41.25,0,0,1-3.59,2.72l-78.42-35.78-.15-.06c-10.82-3.55-41.76,9.44-43.07,10l-1.33.56.51,1.35c.43,1.13,10.55,27.7,23.32,32.61,4.28,1.64,9.65,3.66,11.65,4.4.61,3.22,2.48,11.88,5.45,13.95,2.47,1.72,6.71,2.46,9.75,2.78-1.43,1.34-3.19,3-4.53,4.58a34.67,34.67,0,0,0-6.08,9.35l-.75,2,23.36.59c.34,2.27,1.24,6.77,3.2,9.16,2.14,2.61,5,5.43,11.56,5.87,4.09.28,5.52.4,6,.44,1.14.61,5.64,3,8.06,4a15.05,15.05,0,0,1,2.06,1,19.73,19.73,0,0,0,3.07,15.42c4.45,6.8,12.57,13.66,15.45,16-1.33,2.44-4.08,8.25-3.57,14.23.8,9.28,11.09,26.86,44.33,26.94h.12c36.56,0,54.72-38,57.22-43.67,2.23-.71,8.49-3.48,14.44-13.55a64.36,64.36,0,0,0,5.58-12.13,48.14,48.14,0,0,0,7.79,3.11c6.26,1.89,17.81,5,24.89,4.35,10.64-.94,14.93-9.89,16.11-13l6.45-.29,2.67-18.79a83.1,83.1,0,0,1,8.55-2.4c5.9-1.25,9.4-12.72,9.78-14l.16-.56-.25-.52c-.18-.37-3.76-7.54-9.62-11.22a70.71,70.71,0,0,0,7.22-2.82c10.89-5,7.77-21.95,7.64-22.66Z" fill="#fff"/></g><g id="レイヤー_1" data-name="レイヤー 1"><g id="Taschenmesser"><g id="Taschenmesser_Rechts" data-name="Taschenmesser Rechts"><g id="Büchsenöffner"><path d="M283.1,198.19l49.86,4.6-.77,5.31-5.55-.2s-1.16,12.1-9.13,13.32-13.07-.84-13.07-.84,4.13-2.17,5.17-5.87.48-5.56.48-5.56L292.52,207l-.86,10s-5.18-1.23-7.36-5.23-2.38-6-2.38-6l-6.86-1L275,197Z" fill="#dcdddd" stroke="#000" stroke-miterlimit="10" stroke-width="2"/><polygon points="285.82 200.27 330.28 204.39 330.28 205.76 285.51 200.9 285.82 200.27" fill="#efefef"/></g><g id="Nagelfeile"><path d="M273.87,184.84s59-7.2,66.66-8.05a10.94,10.94,0,0,1,10.88,5.42s-2.11,6.11-10.63,7-64.53,4.63-64.53,4.63Z" fill="#dcdddd" stroke="#000" stroke-miterlimit="10" stroke-width="2"/><path d="M298.51,184.59l.56,5.08s39.62-2.63,43-3,5.47-4.28,5.47-4.28a7.39,7.39,0,0,0-6-3C337.65,179.56,298.51,184.59,298.51,184.59Z" fill="#c9caca" stroke="#000" stroke-miterlimit="10" stroke-width="1.5"/><polygon points="286.15 185.19 296.74 184.03 296.83 185.4 286.19 185.89 286.15 185.19" fill="#efefef"/></g><g id="Schere"><path d="M269.85,162.6c5.38-.38,49.49-5.39,62.49-8,13.92-2.76,26.05-5.39,26.05-5.39s3.29,8.41-13,11.84L312.86,168s-2.75,3.5-4.26,3.35-6.09-5.41-6.09-5.41-24.76,2.25-30.74,2.67S264.47,163,269.85,162.6Z" fill="#dcdddd" stroke="#000" stroke-miterlimit="10" stroke-width="2"/><path d="M284.19,178.62c-5.14,3.66-1.29,7.2,3.84,3.28s14.84-11,14.84-11l1.26-3.4s22.2-13.24,32.3-18.8c9.54-5.24,17.06-9.33,17.06-9.33s-8-6.81-18.61,0S306.61,155.94,305.49,157s-2.37,4.74-2.37,4.74-1,3.37-5.79,7.27S284.19,178.62,284.19,178.62Z" fill="#dcdddd" stroke="#000" stroke-miterlimit="10" stroke-width="2"/><ellipse cx="307.6" cy="161.46" rx="1.65" ry="1.39" transform="translate(-10.6 22.04) rotate(-4.03)" fill="#fff" stroke="#000" stroke-miterlimit="10" stroke-width="1.99"/><path d="M347,139s-3-2.72-11.92,2.74S306.72,158,306.72,158s23.77-12.33,29.57-15A76.44,76.44,0,0,1,347,139Z" fill="#efefef"/><path d="M323.92,158.47l-3.59,1.8s30.76-5.3,33.16-6A4.19,4.19,0,0,0,356.4,152Z" fill="#efefef"/><polygon points="301.05 161.1 300.43 162.49 280.64 163.41 301.05 161.1" fill="#efefef"/></g><g id="Säge"><path d="M283.09,155.35,265,165.29l-5.55-9.93S343,95.14,353,89.88s29.72,2,31.9,3.68c1.16.9-16,12.34-16,12.34l-4.05.13L363,110l-4.36,0-1.86,3.95-4.36,0-1.86,3.94-4.36,0-1.86,3.94-4.36,0-1.86,3.94-4.36,0-1.86,3.94-4.36,0-1.85,3.93-4.36,0-1.86,3.94-4.36,0-1.86,3.94-4.35,0L307,145.07l-4.36,0L300.79,149l-4.36,0-1.86,3.94-4.35,0-1.86,3.94Z" fill="#dcdddd" stroke="#000" stroke-miterlimit="10" stroke-width="2"/><path d="M287.38,139S338,101.88,352.12,93.51c10.16-6,28.92.62,28.92.62s-8.85-2.07-23.13,4.15S290.36,139,290.36,139Z" fill="#efefef"/></g></g><g id="Taschenmesser_Links" data-name="Taschenmesser Links"><g id="Büchsenöffner-2" data-name="Büchsenöffner"><path d="M162.73,194.38s-31.2,1.39-34.26,1.76-.43,9,4,8.8,7.45.33,11.88-.53c5.88-1.15,12.81-3,14.14.23,2.49,6-9.38,7-9.38,7s11.85,5.13,14,1.77,4-10.45,4-10.45l15.65-1.67-1-9.17Z" fill="#dcdddd" stroke="#000" stroke-miterlimit="10" stroke-width="2"/></g><g id="Messer_2" data-name="Messer 2"><path d="M182.56,186.81s-53.34-4.79-60.66-5.16-13.28,8.52-13.28,8.52l72.31.47Z" fill="#dcdddd" stroke="#000" stroke-miterlimit="10" stroke-width="2"/><path d="M112.35,188.38s5.88-5,9.23-4.77,47.91,4,47.91,4-40.32-1.6-46.28-1.78A23.29,23.29,0,0,0,112.35,188.38Z" fill="#efefef"/><polygon points="128.99 184.66 124.42 184.29 123.21 186.74 128.97 186.94 128.99 184.66" fill="#efefef" stroke="#000" stroke-miterlimit="10" stroke-width="1.98"/><path d="M129,197.78s31.8-1.11,33.66-1.38,4.7-.49,4.7-.49l-.55,4.29s0-2.21-3.32-2.39S137.71,199,134,199.44s-1.74,3.66-1.74,3.66a4.52,4.52,0,0,1-2.89-2.9A10.17,10.17,0,0,1,129,197.78Z" fill="#efefef"/><path d="M160.23,207.73s-.83,2.49-2.41,3.11-2.93,1-2.93,1a4.2,4.2,0,0,0,3.34,0C159.68,211.05,160.23,207.73,160.23,207.73Z" fill="#dcdddd"/></g><g id="Korkenzieher"><path d="M183.24,180.17s-12.41-1.75-14.32-2.08-1.4-3.31-4.44-3.69-3.33,3.18-5.08,2.88-2.54-4.31-6.22-4.8S150,175.69,147,175.3s-.61-4.11-4.63-4.52-2.91,3.64-6.12,3.23-1.2-4.48-4.91-4.84-3.29,4-6.47,3.44-1.23-4.34-4.78-4.68-2.65,4.09-5.63,3.32-1.25-4.22-4.93-4.71-4.5,4.31-7.5,3.67a3.67,3.67,0,0,1-3-3.45s1,5.9,3.19,6.28,3.73-2.7,6-2.46,2.71,4.34,5.75,4.72,3.16-3.2,5.55-2.8,1.48,3.86,4.52,4.24,4.43-3.92,6.64-3.41,1.77,5,4.36,5.14,3.71-3.51,6.07-3,3.48,3.66,6,4.09,3.25-3.72,5.64-3.32,3,4.65,5.52,5.08,3.21-3.46,5.26-3,2.72,3.27,4.47,3.56,13.56,1.68,13.56,1.68Z" fill="#dcdddd" stroke="#000" stroke-miterlimit="10" stroke-width="2"/></g><g id="Messer_1" data-name="Messer 1"><path d="M186.06,163s-79.25-37.12-88.82-40-30.62,7.33-30.62,7.33,10.94,20.36,21.23,23.14c10.46,2.82,95.16,22.7,95.16,22.7Z" fill="#dcdddd" stroke="#000" stroke-miterlimit="10" stroke-width="2"/><path d="M69.3,131.14a106.35,106.35,0,0,1,20.52,2.91c10.64,2.65,81.83,28.44,81.83,28.44a3.2,3.2,0,0,1,.78-1.4,5.9,5.9,0,0,1,1.42-1.3s-69.69-32.4-77.08-34.61S69.3,131.14,69.3,131.14Z" fill="#efefef"/><path d="M129,141.4s-7.6-1.66-17.55-5c-8.44-2.81-11.11-8-11.11-8Z" fill="#9fa0a0" stroke="#000" stroke-miterlimit="10" stroke-width="1.93"/><path d="M110.5,169.25a1.22,1.22,0,0,0-1.19-1.28,2.22,2.22,0,0,0-2,.64,5.17,5.17,0,0,1,1.81,0A4.22,4.22,0,0,1,110.5,169.25Z" fill="#efefef"/><path d="M121.19,170.71a1.18,1.18,0,0,0-.94-1.28,1.6,1.6,0,0,0-1.56.64,3.28,3.28,0,0,1,1.44,0A3.16,3.16,0,0,1,121.19,170.71Z" fill="#efefef"/><path d="M132.23,171.92a1.18,1.18,0,0,0-.94-1.28,1.6,1.6,0,0,0-1.56.64,3.46,3.46,0,0,1,1.44,0A3.35,3.35,0,0,1,132.23,171.92Z" fill="#efefef"/><path d="M143.28,173.53a1.19,1.19,0,0,0-.95-1.28,1.61,1.61,0,0,0-1.56.64,2.47,2.47,0,0,1,2.51.64Z" fill="#efefef"/><path d="M165.8,177.14a1.68,1.68,0,0,0-1.25-1.28,1.6,1.6,0,0,0-1.56.64,3.42,3.42,0,0,1,1.43,0A9.41,9.41,0,0,1,165.8,177.14Z" fill="#efefef"/><path d="M155.21,175.08a3.36,3.36,0,0,0-2-1.05,2.74,2.74,0,0,0-2,.41,4.88,4.88,0,0,1,1.76,0C153.69,174.61,155.21,175.08,155.21,175.08Z" fill="#efefef"/></g></g></g><g id="Rucksack"><path d="M256.69,154.94l6.68-3.92s16.21,8.93,18.29,31.41c3.12,33.7-14.72,57.25-19.92,55.75s9.08-32.38,9.42-47.49S256.69,154.94,256.69,154.94Z" fill="#d62d1e" stroke="#000" stroke-miterlimit="10" stroke-width="3"/><path d="M269.82,161.57l1.38-1.38s8.81,10.23,8.92,28.57a96.34,96.34,0,0,1-4.77,28.71s4-13.58,3.3-27.5C277.48,168.36,269.82,161.57,269.82,161.57Z" fill="#e25252"/></g><path id="陰影" d="M290.77,140c-.87-.22-2.27-.32-7.93-.32l-6.1,0c-2.49,0-5.15,0-7.81,0-4.26,0-10.24,0-14.49-.28a41,41,0,0,0-23.34-7.85c-18.81-.58-35.46,7.55-44.48,21.53-3.05,2.9-8.79,6.12-10.34,6.47a5,5,0,0,0-4,5.41c.2,1.85,1.52,3.92,4.44,4.88a13.43,13.43,0,0,0-1,1,9.32,9.32,0,0,0-2.33,7.65,8.47,8.47,0,0,0,.4,1.46,47.49,47.49,0,0,0-6.55,24.11,49,49,0,0,0,.43,6.41,11.52,11.52,0,0,0-2-.18,10.64,10.64,0,0,0-8.29,3.88,12,12,0,0,0-2.19,10.27c1.64,7.93,13.66,21.3,23.24,23.6a11.84,11.84,0,0,0,2.67.34,6.86,6.86,0,0,0,6-3,7.85,7.85,0,0,0,.9-2,47.31,47.31,0,0,0,22.1,8.11c1.74,5.66,6.4,6.6,9.3,6.6a13.7,13.7,0,0,0,10.87-5.06H231a44.14,44.14,0,0,0,6.79-.53c-8.43,9.46-20.61,14.9-29.57,14.9h0c-3.78,0-8.85-1-11.58-5.55-3.61-6.07-9.4-9.84-15.1-9.84-6,0-10.15,4.23-10.36,10.52-.11,3.41,1.68,7.11,5.17,10.72,5.87,6.06,17.24,12.17,29.44,12.17a33.86,33.86,0,0,0,7.85-.9c21.61-5.11,41-22.42,46.61-41.45,20.62-15.76,19-59.08,12.15-78.4q-.71-2-1.53-3.93a22.83,22.83,0,0,0,2.46.14,19.09,19.09,0,0,0,5.47-.79c10.72-3.21,15.57-11.17,15.47-15.54A4.69,4.69,0,0,0,290.77,140Z"/><path id="陰影-2" data-name="陰影" d="M289.51,142.09c-.86-.22-1.87-.31-7.53-.31h-5.63c-2.49,0-5.32.07-8,.07-4.27,0-10.33,0-14.58-.21a39.57,39.57,0,0,0-22.8-8c-18.81-.58-34.31,7.65-43.32,21.63-3,2.9-8.82,6.1-10.44,6.49s-3.8,1.17-3.52,3.73c.2,1.85,4.07,2.77,7.39,3.46a15.83,15.83,0,0,0-3.45,3.18c-1.85,2.49-2.63,4.49-2.42,6.35.06.52.24.58.41,1a56.43,56.43,0,0,0-7.11,26.33,62.19,62.19,0,0,0,1,7.18,17.23,17.23,0,0,0-3.8-.76c-3.26,0-5,.64-7.05,3.11-2.21,2.73-2,5.57-1.24,9.47,1.64,7.93,12.26,19.64,21.84,21.94a6.1,6.1,0,0,0,1.93.31c2.42,0,3.69-.65,4.39-2.59a11.57,11.57,0,0,0,.59-3c6.53,4.51,17.35,9,25.35,9.81,1.74,5.66,5.18,5.67,8.09,5.67,4.38,0,7.25-2.32,9.95-5.6l1.93-.07c1.86,0,8.43-1.39,11.06-1.79-7.05,10.5-16.38,17.61-31.44,19.48l-3.73.28c-3.78,0-9.3-.6-12-5.19-3.61-6.07-8.81-9.88-14.51-9.88-6,0-8.5,3.46-8.09,8.92.26,3.4,2.18,6.21,5.67,9.81,5.86,6.06,16.89,10.43,29.09,10.43a38,38,0,0,0,9.19-1.52c15.61-4.63,35.55-20.35,41.18-39.38,20.63-15.76,19.34-57.45,12.51-76.77-.48-1.34-2.77-6.46-3.32-7.74.83.1,4.37.83,5.18.83a21.08,21.08,0,0,0,5.53-.55c10.46-2.87,13.92-9.13,14-13.68C291.74,142.2,291.57,142.6,289.51,142.09Z"/><g id="ボール"><path d="M201.42,166.48a1.21,1.21,0,0,1-.19,0c-3.56,2.33-7.84,3.72-9.56,3.64a3.87,3.87,0,0,1-2.66-1.31,8.13,8.13,0,0,0-1.63,1.09,50.11,50.11,0,0,0-8.78,9.56,43.9,43.9,0,0,0-2,46.13,34,34,0,0,0,57.56-24.49C234.17,182.51,219.93,166.78,201.42,166.48Z" fill="#00709c"/><path d="M256.66,190.24c-10.06-18.17-23.55-24-35.5-26.81-8.66.86-12.21-.77-13.63-2.49l-1.11-.21c-1.91,5.58-11.89,9.53-14.75,9.39a4,4,0,0,1-2.84-1.5A44.89,44.89,0,0,0,171,204.14,44,44,0,0,0,213,248a79.37,79.37,0,0,0,16.68-20.62c3.76-9.71,16.6-14.72,27.4-10.73a44.08,44.08,0,0,0,1.82-12.55C258.91,199.28,258.89,194.27,256.66,190.24Z" fill="#d62d1e"/><path d="M197.25,227.19a18.48,18.48,0,0,1-5.29-.38c-.56-5.62-.93-12.65,1.91-24.91a179.7,179.7,0,0,0,10.86,23.18,21.06,21.06,0,0,1-7.48,2.11m-8.64-1.42c-14.73-6.7-17.44-22.57-12.5-34.79.19,12.09,3.58,21.52,12.5,34.79m19.95-3c2.33-10.07,6.22-19.7,8.5-29.79a20,20,0,0,0,.14-8.37c6.81,10.64,6,27.16-8.64,38.16m-30.37-35.85c6.65-10.24,19.37-18.57,33.33-8.34-.09,0-9,.4-2.51,9.92,3.48,5.15,3.7,9.28,1,17.67-1,4.14-1.3,5.39-2.19,9.65-4.24-10.15-7.71-18.79-10.45-29.85,2.41-.35,5.14-.75,3.74-2.3-.18-.19-12.86,1.06-13,1.08-1,.17-1.15,1.32-1.15,1.33-.1.9.07.89,2.81.73a76.47,76.47,0,0,0,2.85,11.38,82.39,82.39,0,0,0-2.82,19.54c-5.77-11.5-8.09-19.49-8.53-29.47.82-.5,1.92-.31,2.64-1.05.5-.51.74-1.65.12-1.78-2.18-.47-3.85,1.08-5.81,1.49m20.07-15.14c-21.86,1.81-36,34.75-16.72,52,19.6,17.47,43.8-5.1,43-26-.65-16.24-14.1-26.52-26.25-25.94" fill="#fff"/></g><path id="耳_しっぽ" data-name="耳・しっぽ" d="M186.49,165.72c-10.78,3-11.88-1.94-9.4-2.49s9.13-4.42,12.44-7.74Zm66.06-22.66c-5-.41-1.11,3.31.55,4.69s13.54,12.16,24.6,8.85,14.37-12.44,12.16-13S262.78,143.88,252.55,143.06ZM246.47,246.7c-11.89,21.84-43.75,32.8-53.07,17.14-6.08-10.23-18.21-10.76-18.52-1.11-.27,8.57,19.8,22.52,37.87,18.24,21-5,39.52-22.11,44.22-40.07Z" fill="#f80"/><path id="身体" d="M268.86,166a57.26,57.26,0,0,0-5.37-11.25,48.11,48.11,0,0,1-10.39-7c-1.66-1.38-5.52-5.1-.55-4.69l.54,0a37.48,37.48,0,0,0-22.1-7.77c-18.24-.56-33.44,7.46-41.46,20.17-5.4,8.58-1.38,13.27,1.11,14.37s13-3,16-8.56c7.18,4.42,13.69,3,20.6.75l9.82,1.95h0l.22.06c-.44-.09-.88-.16-1.32-.23l-.88-.13-.14,0h0a33.42,33.42,0,0,0-4.35-.27c9.72,2.09,33.85,9.83,26,26.81-.05.08.25.44.3.67a89.27,89.27,0,0,1,1.89,12c0,.51,0,1.17,0,1.69,0,1.49-.09,2.37-.19,3.62a33.54,33.54,0,0,1-1.72,8.43,21.23,21.23,0,0,1,8.2,15.26C276.41,213.53,274.17,181,268.86,166Z" fill="#ffd200"/><g id="手足"><path d="M171.57,216.3c-6.75-5.19-14.38-.55-12.72,7.46,1.37,6.59,12.5,18.82,20.46,20.73,6.91,1.66,5.51-5.8,4.42-8.29C181.79,231.78,175.16,219.06,171.57,216.3Z" fill="#ffd200"/><path d="M258.73,211.4a13.46,13.46,0,0,1-1.79,5.37c-8.13-4.69-22.84.62-27.24,10.62-2.2-5.61-9.47-16.26-15.57-12.2-6.63,4.42-2.21,13.82-1.1,21s-2.77,18.24,6.35,18.24a10.07,10.07,0,0,0,9-5.15c6.77.51,17.61-.84,28.58-8.39,5.51-3.79,9.35-9.75,11.93-16.76A22.3,22.3,0,0,0,258.73,211.4Z" fill="#ffd200"/><path d="M257,216.67l-.06.1c-8.13-4.69-22.84.62-27.24,10.62-2.2-5.61-9.47-16.26-15.57-12.2-6.63,4.42-2.21,13.82-1.1,21s-2.77,18.24,6.35,18.24a10.07,10.07,0,0,0,9-5.15c6.77.51,17.61-.84,28.58-8.39a29.08,29.08,0,0,0,8.23-9A21.23,21.23,0,0,0,257,216.67Z" fill="#ffd200"/><path d="M185.94,169.86c-2.76-1.1-9.67,3.6-8.85,8s5.81,4.42,9.13,1.11S188.62,170.94,185.94,169.86Z" fill="#ffd200"/><path d="M237.09,164l.22.06c-9.5-1.95-20,.61-25.94,5.8-6.91,6.09-2.21,10.51,3,11.06s15.47-4.14,23.49-2.49,10.47,4.6,19,12.34l.05.19C269.15,174.67,249,167,237.09,164Z" fill="#ffd200"/></g><g id="細_輪郭線" data-name="細・輪郭線"><path d="M229.16,162.76c-7.32,2.34-15,4-22.08.21-3.92,5.44-13.88,9.39-17,8a7.92,7.92,0,0,1-4.13-4.93c-.68-2.25-.81-6,2.48-11.24,8.54-13.55,24.44-21.31,42.55-20.76a38.84,38.84,0,0,1,24.21,9.15c-1,0-1.88-.1-2.69-.16a5.09,5.09,0,0,0-1.57.05,36.42,36.42,0,0,0-20-6.55c-17.21-.52-32.3,6.8-40.37,19.6-2.2,3.49-3,6.67-2.2,9.19a5.47,5.47,0,0,0,2.76,3.38c1.57.7,11.54-2.76,14.44-8a1.24,1.24,0,0,1,.77-.61,1.27,1.27,0,0,1,1,.15c6.8,4.18,14.45,2.27,21.08.15a1.24,1.24,0,0,1,.76,2.37Zm36.31-7.15a33.69,33.69,0,0,1-4.23-2,54.54,54.54,0,0,1,6.44,12.82c6.34,17.9,8.05,60.06-11.41,73.46-12.37,8.52-23.85,8.53-28.21,8.15a1.24,1.24,0,0,0-.22,2.48c.81.07,1.86.13,3.1.13a47.28,47.28,0,0,0,26.74-8.71c11.7-8.06,15.4-24.49,16.44-36.85C275.43,189.48,273,174,270,165.58A60,60,0,0,0,265.47,155.61Z"/><path d="M205.85,283a41.68,41.68,0,0,1-25.18-9.06c-4.58-3.74-7.14-7.84-7-11.25.13-4.09,2.19-6.95,5.66-7.84,4.39-1.14,11,1.37,15.17,8.35,3.42,5.75,9.63,6.87,14.21,6.77,13.66-.26,29.43-10.52,36.7-23.86a1.24,1.24,0,1,1,2.18,1.19c-7.66,14.06-24.35,24.88-38.83,25.15-7.47.13-13.25-2.69-16.4-8-3.52-5.93-8.91-8.12-12.41-7.21-2.35.6-3.7,2.56-3.79,5.51-.09,2.59,2.2,6.05,6.11,9.25,7,5.75,19.11,10.37,30.22,7.74,20.42-4.83,38.64-21.31,43.31-39.18a1.24,1.24,0,1,1,2.4.63c-4.89,18.71-23.87,35.94-45.13,41A30.81,30.81,0,0,1,205.85,283Z"/><path d="M259.74,194.05a1.28,1.28,0,0,1-.84-.32l-1-.89c-8-7.27-12.9-11.66-20.27-13.19-4.44-.92-9.73.26-14.4,1.29-3.54.79-6.6,1.47-9,1.22-3.66-.39-6.55-2.31-7.38-4.9-.58-1.83-.42-4.75,3.65-8.33,7.59-6.68,21.62-8.72,31.95-4.64a1.24,1.24,0,1,1-.91,2.31c-9.54-3.76-22.45-1.92-29.4,4.2-2.38,2.1-3.42,4.12-2.92,5.7s2.64,2.91,5.27,3.18c2,.21,5-.46,8.17-1.16,4.92-1.1,10.49-2.33,15.44-1.3,8,1.66,13.37,6.48,21.44,13.77l1,.89a1.25,1.25,0,0,1,.09,1.76A1.26,1.26,0,0,1,259.74,194.05Z"/><path d="M273.3,158.47h0c-4.35,0-11.48-1.65-20.7-9.51l-.29-.25c-4.08-3.4-3.52-5-3.33-5.46.35-1,1.32-1.47,2.88-1.47a7.59,7.59,0,0,1,.79,0c4.31.35,11.33.39,16.24.39,2.67,0,5.35,0,7.86,0l6.11,0c5.27,0,6.7.09,7.3.24a2.21,2.21,0,0,1,1.59,2.29c.07,3-4,10.19-13.69,13.1A16.65,16.65,0,0,1,273.3,158.47Zm-21.79-14.19a11.83,11.83,0,0,0,2.39,2.52l.32.27c8.64,7.37,15.14,8.91,19.08,8.92h0a14.19,14.19,0,0,0,4-.58c6.07-1.82,9.8-5.59,11.27-8.5a5.17,5.17,0,0,0,.65-2.14c-.82-.08-3-.12-6.4-.12l-6.1,0-7.87,0c-4.95,0-12,0-16.44-.39A5.13,5.13,0,0,0,251.51,144.28Z"/><path d="M219.38,256.1a7.47,7.47,0,0,1-5.62-2.06c-2.53-2.61-2.38-7-2.24-11.34a36.52,36.52,0,0,0-.13-6.25c-.24-1.51-.63-3.14-1-4.86-1.53-6.42-3.27-13.69,2.86-17.78a6.81,6.81,0,0,1,3.8-1.18c7.2,0,13.55,11.35,14.75,15.66,2.13,7.31,1.63,11.74,0,16.87C231.07,249,227.62,256.1,219.38,256.1ZM217,216a3.44,3.44,0,0,0-2,.62c-3.92,2.61-3.13,7.34-1.47,14.25.41,1.71.83,3.48,1.08,5.13a38.86,38.86,0,0,1,.18,6.86c-.12,3.6-.25,7.32,1.31,8.93a4.29,4.29,0,0,0,3.23,1c7.58,0,9.09-8,9.15-8.3a1.6,1.6,0,0,1,.05-.21c1.48-4.68,1.91-8.47,0-15.07C227.34,224.77,221.48,216,217,216Z"/><path d="M246.3,214.32A21.23,21.23,0,0,0,229,226.25a1.26,1.26,0,0,0,.57,1.67,1.37,1.37,0,0,0,.55.12,1.25,1.25,0,0,0,1.12-.69,18.59,18.59,0,0,1,15.28-10.55c5.4-.55,10.87,1.07,13,3.85a1.24,1.24,0,1,0,2-1.52,10.26,10.26,0,0,0-3.13-2.59,45.36,45.36,0,0,0-.58-26.7,1.24,1.24,0,0,0-2.36.79,42.88,42.88,0,0,1,.65,24.85A22.4,22.4,0,0,0,246.3,214.32Z"/><path d="M181.11,246h0a9.08,9.08,0,0,1-2.09-.27c-8.42-2-19.93-14.65-21.38-21.69a9.59,9.59,0,0,1,1.68-8.19,8.14,8.14,0,0,1,6.36-3,11,11,0,0,1,6.65,2.45c4.09,3.15,11,17,12.54,20.39.62,1.42,1.86,5.7.12,8.36A4.35,4.35,0,0,1,181.11,246Zm-15.43-30.62a5.58,5.58,0,0,0-4.43,2,7.19,7.19,0,0,0-1.18,6.12c1.27,6.12,12.15,18,19.53,19.77a6.28,6.28,0,0,0,1.51.2,1.89,1.89,0,0,0,1.8-.79c.9-1.37.39-4.36-.32-6-2-4.67-8.51-16.9-11.78-19.42A8.54,8.54,0,0,0,165.68,215.35Z"/><path d="M181.11,182.59h0a5.15,5.15,0,0,1-5.24-4.48,6.87,6.87,0,0,1,1.81-5.6c1.94-2.35,5-4,7.31-4a3.73,3.73,0,0,1,1.41.25,5.31,5.31,0,0,1,3,4,8,8,0,0,1-2.36,7.2A8.69,8.69,0,0,1,181.11,182.59ZM185,170.94c-1.34,0-3.78,1.21-5.4,3.16a4.68,4.68,0,0,0-1.27,3.55,2.66,2.66,0,0,0,2.79,2.46,6.35,6.35,0,0,0,4.23-2,5.52,5.52,0,0,0,1.67-4.94,2.82,2.82,0,0,0-1.53-2.15A1.32,1.32,0,0,0,185,170.94Z"/><path d="M180.49,167.94c-2.81,0-4.22-.85-4.9-1.53a2.67,2.67,0,0,1-.75-2.63,2.59,2.59,0,0,1,2-1.76c2.15-.48,8.56-4.14,11.83-7.41a1.26,1.26,0,0,1,1.76,0,1.24,1.24,0,0,1,0,1.76c-3.42,3.43-10.25,7.45-13,8.08a.3.3,0,0,0-.15.06,1.55,1.55,0,0,0,.36.32c.52.35,2.66,1.36,8.58-.31a1.25,1.25,0,0,1,.68,2.4A23.63,23.63,0,0,1,180.49,167.94Z"/></g><path id="顔" d="M209.71,152.45c2.49-.27,2.21,2.49,0,4.15-2,1.53-2.21,1.38-4.42,1.1s-2.81-2.11-.83-3.59A10.63,10.63,0,0,1,209.71,152.45Zm-13.54.28a2.49,2.49,0,1,0,2.48,2.49A2.48,2.48,0,0,0,196.17,152.73Zm28.74-6.91a2.49,2.49,0,1,0,2.49,2.49A2.49,2.49,0,0,0,224.91,145.82Z"/></g><g id="Logo_Slogan" data-name="Logo/Slogan"><path d="M188.94,250.32l-.69-.37-.92,1-.69-.4.93-.94-.69-.4c.14-.15.28-.31.43-.46l.7.4.89-1-.71-.38.42-.47.72.39.9-1,.68.34-.9,1,.68.35.9-1,.69.33-.91,1,.71.34c-.14.17-.27.34-.41.5l-.73-.36c-.29.34-.59.67-.88,1l.74.37-.42.49-.76-.38-.91,1-.7-.38Zm.64-1.81c-.3.32-.59.65-.88,1l.67.36c.3-.32.59-.65.89-1Z"/><path d="M194.58,251.62c-.56.71-1.12,1.4-1.69,2.09l-1-.46.3-4,1,.45c-.08.89-.17,1.79-.26,2.68.58-.67,1.14-1.36,1.71-2l.84.34c0,.92-.07,1.83-.11,2.75.53-.72,1.05-1.44,1.57-2.17l1,.36q-1.2,1.63-2.43,3.21l-1-.41Z"/><path d="M200.09,252.22a1.73,1.73,0,0,1,1.22,1.1l-.83.42a.9.9,0,0,0-.64-.64,1.06,1.06,0,0,0-1.37.74,1,1,0,0,0,.63,1.41,1,1,0,0,0,.92-.15l.43.79a1.8,1.8,0,0,1-1.7.21,2,2,0,0,1-1.27-2.61A2,2,0,0,1,200.09,252.22Z"/><path d="M203.88,253.27a1.61,1.61,0,0,1,1.25,1l-.83.48a.85.85,0,0,0-.65-.6,1.13,1.13,0,0,0-1.36.84,1,1,0,0,0,.65,1.36,1,1,0,0,0,.92-.21c.15.25.3.51.46.76a1.89,1.89,0,0,1-1.71.32,1.86,1.86,0,0,1-1.33-2.51A2.15,2.15,0,0,1,203.88,253.27Z"/><path d="M208,255.81c.16-.54-.06-.75-.49-.82a1.24,1.24,0,0,0-1,.3l-.78,2.58-1-.21c.55-1.75,1.08-3.52,1.6-5.29l1,.18-.57,2a2,2,0,0,1,1.48-.38c.81.13,1.07.65.86,1.42-.26.92-.52,1.84-.79,2.77l-1-.17C207.57,257.39,207.8,256.6,208,255.81Z"/></g></svg>