<svg xmlns="http://www.w3.org/2000/svg" viewBox="0 0 530 337.5"><g id="T-Shirt"><g id="Taschenmesser_Kopie" data-name="Taschenmesser Kopie"><g id="Taschenmesser_Rechts_Kopie" data-name="Taschenmesser Rechts Kopie"><g id="Büchsenöffner_Kopie" data-name="Büchsenöffner Kopie"><path d="M325.85,189.49,386,195l-.93,6.41-6.69-.25s-1.4,14.6-11,16.06-15.76-1-15.76-1,5-2.62,6.23-7.08.58-6.71.58-6.71l-21.19-2.34-1,12s-6.24-1.48-8.87-6.3-2.88-7.25-2.88-7.25l-8.28-1.22-.07-9.27Z" fill="#fff" stroke="#000" stroke-miterlimit="10" stroke-width="3"/></g><g id="Nagelfeile_Kopie" data-name="Nagelfeile Kopie"><path d="M314.71,173.39s71.12-8.69,80.4-9.7a13.18,13.18,0,0,1,13.12,6.53s-2.55,7.38-12.81,8.5-77.84,5.59-77.84,5.59Z" fill="#fff" stroke="#000" stroke-miterlimit="10" stroke-width="3"/><path d="M344.43,173.09l.68,6.13S392.9,176,397,175.6s6.59-5.16,6.59-5.16a8.88,8.88,0,0,0-7.28-3.63C391.63,167,344.43,173.09,344.43,173.09Z" fill="#fff" stroke="#000" stroke-miterlimit="10" stroke-width="1.77"/></g><g id="Schere_Kopie" data-name="Schere Kopie"><path d="M309.87,146.57c6.48-.46,59.68-6.49,75.36-9.61,16.79-3.33,31.41-6.5,31.41-6.5s4,10.14-15.65,14.28L361.74,153s-3.32,4.22-5.14,4-7.34-6.53-7.34-6.53-29.87,2.72-37.08,3.22S303.38,147,309.87,146.57Z" fill="#fff" stroke="#000" stroke-miterlimit="10" stroke-width="3"/><path d="M327.16,165.89c-6.2,4.42-1.56,8.69,4.63,4s17.9-13.21,17.9-13.21l1.52-4.1s26.77-16,39-22.67c11.5-6.33,20.57-11.26,20.57-11.26s-9.63-8.21-22.45,0-34.09,19.88-35.44,21.2-2.86,5.72-2.86,5.72-1.16,4.07-7,8.77S327.16,165.89,327.16,165.89Z" fill="#fff" stroke="#000" stroke-miterlimit="10" stroke-width="3"/><ellipse cx="355.4" cy="145.2" rx="1.99" ry="1.68" transform="translate(-9.34 25.37) rotate(-4.03)" fill="#fff" stroke="#000" stroke-miterlimit="10" stroke-width="1.99"/></g><g id="Säge_Kopie" data-name="Säge Kopie"><path d="M325.83,137.83l-21.84,12-6.68-12s100.83-72.62,112.82-79S446,61.25,448.61,63.3c1.39,1.09-19.3,14.89-19.3,14.89l-4.88.15-2.26,4.76-5.25,0-2.25,4.76-5.26,0-2.24,4.75-5.26,0-2.25,4.75-5.25,0-2.25,4.75-5.25,0-2.24,4.76-5.26,0-2.24,4.75-5.25-.06L369.67,116l-5.25,0-2.24,4.75-5.26,0-2.24,4.75-5.26-.05-2.24,4.75-5.25,0-2.25,4.76-5.25-.05-2.24,4.75Z" fill="#fff" stroke="#000" stroke-miterlimit="10" stroke-width="3"/></g></g><g id="Taschenmesser_Links_Kopie" data-name="Taschenmesser Links Kopie"><g id="Büchsenöffner_Kopie-2" data-name="Büchsenöffner Kopie"><path d="M180.68,184.9S143,186.57,139.36,187s-.51,10.85,4.84,10.6,9,.41,14.33-.64c7.08-1.38,15.44-3.57,17,.28,3,7.21-11.31,8.46-11.31,8.46s14.3,6.19,16.84,2.14,4.8-12.6,4.8-12.6l18.88-2-1.16-11.06Z" fill="#fff" stroke="#000" stroke-miterlimit="10" stroke-width="3"/></g><g id="Messer_2_Kopie" data-name="Messer 2 Kopie"><path d="M204.59,175.76s-64.33-5.77-73.16-6.21-16,10.27-16,10.27l87.21.57Z" fill="#fff" stroke="#000" stroke-miterlimit="10" stroke-width="3"/><polygon points="139.98 173.18 134.47 172.74 133.02 175.69 139.97 175.92 139.98 173.18" fill="#fff" stroke="#000" stroke-miterlimit="10" stroke-width="1.98"/></g><g id="Korkenzieher_Kopie" data-name="Korkenzieher Kopie"><path d="M205.41,167.76s-15-2.11-17.26-2.5-1.69-4-5.37-4.46-4,3.83-6.11,3.48-3.07-5.2-7.51-5.79-3.82,3.86-7.49,3.4-.74-5-5.59-5.46-3.51,4.4-7.37,3.9-1.46-5.4-5.92-5.83-4,4.8-7.82,4.15-1.47-5.25-5.75-5.65-3.21,4.93-6.8,4-1.5-5.09-6-5.68-5.42,5.2-9,4.42a4.41,4.41,0,0,1-3.64-4.16s1.16,7.13,3.85,7.58,4.5-3.26,7.22-3,3.26,5.22,6.93,5.69,3.81-3.87,6.69-3.38,1.78,4.65,5.45,5.12,5.35-4.73,8-4.12,2.14,6,5.26,6.21,4.47-4.24,7.32-3.59,4.19,4.41,7.26,4.93,3.92-4.49,6.8-4,3.59,5.61,6.66,6.13,3.87-4.18,6.34-3.6,3.28,3.94,5.39,4.3,16.36,2,16.36,2Z" fill="#fff" stroke="#000" stroke-miterlimit="10" stroke-width="3"/></g><g id="Messer_1_Kopie" data-name="Messer 1 Kopie"><path d="M208.81,147.06S113.23,102.3,101.7,98.82s-36.94,8.84-36.94,8.84S78,132.22,90.37,135.57C103,139,205.13,162.94,205.13,162.94Z" fill="#fff" stroke="#000" stroke-miterlimit="10" stroke-width="3"/><path d="M140,121s-9.17-2-21.17-6c-10.18-3.4-13.39-9.71-13.39-9.71Z" fill="#fff" stroke="#000" stroke-miterlimit="10" stroke-width="1.93"/></g></g></g><g id="Rucksack_Kopie" data-name="Rucksack Kopie"><path d="M294,137.33l8.06-4.73s19.54,10.78,22.05,37.89c3.76,40.65-17.76,69-24,67.23s11-39.05,11.36-57.27S294,137.33,294,137.33Z" fill="#fff" stroke="#000" stroke-miterlimit="10" stroke-width="3"/></g><g id="レイヤー_1_Kopie" data-name="レイヤー 1 Kopie"><path id="陰影" d="M333.58,121.83c-1-.26-2.26-.37-9.08-.37h-6.79c-3,0-6.43.08-9.63.08-5.14,0-12.45,0-17.58-.25a47.77,47.77,0,0,0-27.5-9.71c-22.69-.69-41.37,9.23-52.25,26.09-3.68,3.49-10.63,7.36-12.58,7.83s-4.59,1.41-4.25,4.5c.24,2.22,4.91,3.33,8.91,4.17a19.35,19.35,0,0,0-4.16,3.83c-2.23,3-3.17,5.42-2.92,7.67.07.62.29.69.5,1.25a68.06,68.06,0,0,0-8.58,31.75c0,2.59.82,6.11,1.16,8.66a21.16,21.16,0,0,0-4.58-.91c-3.93,0-6.08.77-8.5,3.75-2.67,3.28-2.47,6.72-1.5,11.41,2,9.57,14.78,23.69,26.33,26.46a7.36,7.36,0,0,0,2.34.38c2.91,0,4.45-.78,5.29-3.13a14.07,14.07,0,0,0,.71-3.62c7.88,5.44,20.92,10.85,30.58,11.83,2.09,6.83,6.25,6.83,9.75,6.83,5.28,0,8.74-2.79,12-6.75.29,0,2-.08,2.33-.08,2.24,0,10.16-1.68,13.34-2.17-8.5,12.67-19.75,21.25-37.92,23.5l-4.5.34c-4.56,0-11.21-.72-14.5-6.25-4.35-7.33-10.62-11.92-17.5-11.92-7.23,0-10.25,4.17-9.75,10.75.31,4.1,2.63,7.49,6.83,11.83,7.08,7.31,20.38,12.59,35.09,12.59a45.85,45.85,0,0,0,11.08-1.84c18.83-5.58,42.87-24.54,49.67-47.5,24.87-19,23.32-69.28,15.08-92.58-.57-1.62-3.34-7.79-4-9.33,1,.11,5.27,1,6.25,1a25.36,25.36,0,0,0,6.67-.67c12.61-3.45,16.79-11,16.83-16.5C336.27,122,336.06,122.45,333.58,121.83Z"/><g id="ボール"><path d="M294,179.9c-12.13-21.9-28.41-29-42.82-32.32-10.44,1-14.72-.94-16.44-3l-1.33-.25c-2.31,6.73-14.34,11.49-17.79,11.31a4.79,4.79,0,0,1-3.43-1.8,54.15,54.15,0,0,0-21.48,42.84,53,53,0,0,0,50.65,52.94,95.68,95.68,0,0,0,20.11-24.86c4.53-11.71,20-17.76,33-12.94a52.94,52.94,0,0,0,2.2-15.14C296.67,190.81,296.65,184.76,294,179.9Z" fill="#fff"/><path d="M222.3,224.47a22.07,22.07,0,0,1-6.37-.45c-.68-6.79-1.12-15.27,2.3-30.05a214.64,214.64,0,0,0,13.1,27.95,25.35,25.35,0,0,1-9,2.55m-10.41-1.72c-17.77-8.07-21-27.21-15.07-41.95.23,14.58,4.31,25.95,15.07,41.95m24.05-3.59c2.82-12.15,7.51-23.77,10.27-35.94a24.34,24.34,0,0,0,.16-10.09c8.21,12.83,7.27,32.76-10.43,46m-36.62-43.25c8-12.35,23.36-22.39,40.2-10.06-.11,0-10.8.49-3,12,4.19,6.21,4.46,11.19,1.14,21.31-1.2,5-1.56,6.5-2.63,11.64-5.12-12.24-9.3-22.67-12.6-36,2.9-.42,6.19-.91,4.5-2.77-.21-.24-15.51,1.28-15.65,1.3-1.18.2-1.38,1.58-1.38,1.6-.13,1.09.07,1.08,3.38.88a92,92,0,0,0,3.44,13.72,99.41,99.41,0,0,0-3.4,23.57c-7-13.87-9.76-23.5-10.29-35.54,1-.61,2.31-.37,3.19-1.27.59-.61.88-2,.14-2.14-2.64-.57-4.65,1.29-7,1.79m24.21-18.25c-26.36,2.18-43.48,41.9-20.16,62.69,23.63,21.07,52.82-6.15,51.81-31.41-.78-19.58-17-32-31.65-31.28"/></g><path id="耳_しっぽ" data-name="耳・しっぽ" d="M209.34,150.33c-13,3.67-14.34-2.33-11.34-3S209,142,213,138ZM289,123c-6-.49-1.33,4,.67,5.67s16.33,14.66,29.66,10.66,17.34-15,14.67-15.66S301.33,124,289,123Zm-7.33,125c-14.34,26.33-52.77,39.56-64,20.67-7.33-12.34-22-13-22.33-1.34-.34,10.34,23.87,27.16,45.66,22,25.33-6,47.67-26.66,53.33-48.33Z" fill="#fff"/><path id="身体" d="M308.67,150.67a69.56,69.56,0,0,0-6.47-13.56,57.76,57.76,0,0,1-12.53-8.44c-2-1.67-6.66-6.16-.67-5.67l.66,0A45.19,45.19,0,0,0,263,113.67c-22-.67-40.33,9-50,24.33-6.52,10.34-1.66,16,1.34,17.33S230,151.67,233.67,145c8.67,5.33,16.51,3.57,24.84.91l11.85,2.35h0l.26.07c-.53-.11-1.06-.2-1.59-.28L268,147.9l-.17,0h0a40,40,0,0,0-5.24-.33c11.73,2.52,40.83,11.86,31.39,32.33-.06.1.3.53.36.82a105.51,105.51,0,0,1,2.29,14.5c0,.62,0,1.41,0,2,0,1.8-.11,2.87-.23,4.38a40.39,40.39,0,0,1-2.07,10.17,25.5,25.5,0,0,1,9.88,18.39C317.78,208,315.08,168.78,308.67,150.67Z" fill="#fff"/><g id="手足"><path d="M191.34,211.33c-8.14-6.26-17.34-.66-15.34,9,1.64,7.95,15.07,22.7,24.67,25,8.33,2,6.65-7,5.33-10C203.67,230,195.67,214.67,191.34,211.33Z" fill="#fff"/><path d="M296.45,205.43a16.2,16.2,0,0,1-2.15,6.47c-9.81-5.66-27.54.75-32.86,12.81C258.79,218,250,205.1,242.67,210c-8,5.33-2.67,16.67-1.33,25.33s-3.34,22,7.66,22a12.12,12.12,0,0,0,10.86-6.21c8.17.61,21.25-1,34.48-10.12,6.63-4.57,11.28-11.75,14.38-20.21C306.56,213.37,301.49,208.53,296.45,205.43Z" fill="#fff"/><path d="M294.37,211.79a.67.67,0,0,0-.07.11c-9.81-5.66-27.54.75-32.86,12.81C258.79,218,250,205.1,242.67,210c-8,5.33-2.67,16.67-1.33,25.33s-3.34,22,7.66,22a12.12,12.12,0,0,0,10.86-6.21c8.17.61,21.25-1,34.48-10.12a35,35,0,0,0,9.91-10.82A25.5,25.5,0,0,0,294.37,211.79Z" fill="#fff"/><path d="M208.67,155.33C205.34,154,197,159.67,198,165s7,5.33,11,1.33S211.9,156.62,208.67,155.33Z" fill="#fff"/><path d="M270.36,148.26l.26.07c-11.45-2.35-24.17.74-31.28,7C231,162.67,236.67,168,243,168.67s18.67-5,28.34-3,12.63,5.54,23,14.87c0,0,0,.09.06.24C309,161.13,284.76,151.87,270.36,148.26Z" fill="#fff"/></g><g id="細_輪郭線" data-name="細・輪郭線"><path d="M260.79,146.76c-8.82,2.82-18.12,4.77-26.63.25-4.73,6.57-16.74,11.33-20.43,9.69a9.57,9.57,0,0,1-5-5.94c-.82-2.71-1-7.27,3-13.56,10.3-16.34,29.48-25.7,51.32-25a46.81,46.81,0,0,1,29.2,11c-1.18-.06-2.27-.12-3.25-.2a6.48,6.48,0,0,0-1.89.06A43.91,43.91,0,0,0,263,115.17c-20.77-.63-39,8.2-48.69,23.63-2.66,4.22-3.58,8-2.66,11.09a6.61,6.61,0,0,0,3.33,4.07c1.89.84,13.92-3.33,17.41-9.68a1.5,1.5,0,0,1,.94-.73,1.52,1.52,0,0,1,1.16.17c8.21,5.05,17.43,2.74,25.43.18a1.5,1.5,0,0,1,.91,2.86Zm43.8-8.62a39.41,39.41,0,0,1-5.1-2.44,65.85,65.85,0,0,1,7.76,15.47c7.64,21.59,9.71,72.43-13.77,88.59-14.91,10.27-28.75,10.29-34,9.83a1.5,1.5,0,0,0-.27,3c1,.08,2.24.15,3.74.15a57,57,0,0,0,32.25-10.49c14.11-9.73,18.57-29.54,19.82-44.45,1.58-18.8-1.33-37.47-4.93-47.62A72.9,72.9,0,0,0,304.59,138.14Z"/><path d="M232.68,291.78a50.31,50.31,0,0,1-30.37-10.93c-5.52-4.51-8.61-9.45-8.47-13.57.16-4.93,2.64-8.38,6.82-9.46,5.3-1.37,13.29,1.66,18.3,10.08,4.12,6.93,11.61,8.28,17.14,8.16,16.47-.31,35.49-12.69,44.25-28.78a1.5,1.5,0,0,1,2.64,1.44c-9.24,17-29.37,30-46.83,30.34-9,.15-16-3.25-19.78-9.63-4.25-7.15-10.75-9.79-15-8.7-2.83.73-4.45,3.09-4.57,6.65-.1,3.12,2.66,7.29,7.38,11.15,8.49,6.94,23,12.52,36.45,9.34,24.62-5.83,46.59-25.7,52.22-47.25a1.5,1.5,0,0,1,2.91.76c-5.9,22.56-28.8,43.34-54.44,49.41A37.57,37.57,0,0,1,232.68,291.78Z"/><path d="M297.67,184.5a1.51,1.51,0,0,1-1-.39L295.48,183c-9.7-8.77-15.56-14.06-24.45-15.9-5.35-1.11-11.73.31-17.36,1.55-4.27.95-8,1.77-10.83,1.47-4.4-.46-7.89-2.78-8.89-5.91-.7-2.2-.51-5.73,4.39-10,9.16-8.06,26.09-10.52,38.55-5.61a1.51,1.51,0,0,1-1.11,2.8c-11.5-4.54-27.07-2.32-35.45,5.06-2.88,2.53-4.13,5-3.52,6.88s3.18,3.5,6.35,3.84c2.38.24,6-.56,9.86-1.41,5.92-1.32,12.64-2.81,18.62-1.57,9.69,2,16.12,7.82,25.85,16.62l1.18,1.07a1.5,1.5,0,0,1-1,2.61Z"/><path d="M314,141.59h0c-5.24,0-13.84-2-24.95-11.47l-.36-.3c-4.92-4.09-4.24-6-4-6.58.43-1.18,1.6-1.78,3.48-1.78.29,0,.6,0,.95,0,5.2.43,13.67.48,19.59.48,3.22,0,6.45,0,9.47,0l7.38,0c6.35,0,8.08.11,8.81.29a2.66,2.66,0,0,1,1.91,2.76c.08,3.64-4.81,12.29-16.51,15.8A19.92,19.92,0,0,1,314,141.59Zm-26.28-17.11a14.19,14.19,0,0,0,2.88,3l.38.33c10.43,8.89,18.27,10.75,23,10.75h0a17,17,0,0,0,4.87-.69c7.32-2.2,11.82-6.74,13.59-10.25a6.12,6.12,0,0,0,.79-2.58c-1-.1-3.58-.15-7.72-.15l-7.36,0c-3,0-6.26,0-9.49,0-6,0-14.53,0-19.83-.48A7.42,7.42,0,0,0,287.75,124.48Z"/><path d="M249,259.33a9,9,0,0,1-6.78-2.47c-3.05-3.16-2.87-8.51-2.7-13.69a43.17,43.17,0,0,0-.16-7.53c-.28-1.83-.75-3.79-1.25-5.86-1.85-7.74-4-16.51,3.45-21.44a8.12,8.12,0,0,1,4.58-1.43c8.69,0,16.34,13.69,17.79,18.89,2.57,8.81,2,14.15,0,20.34C263.1,250.79,258.94,259.33,249,259.33Zm-2.86-48.42a4.2,4.2,0,0,0-2.36.75c-4.73,3.15-3.77,8.85-1.78,17.18.5,2.07,1,4.2,1.31,6.19a46.26,46.26,0,0,1,.21,8.28c-.14,4.34-.29,8.83,1.58,10.76a5.17,5.17,0,0,0,3.9,1.26c9.15,0,11-9.6,11-10l.06-.26c1.79-5.64,2.31-10.21,0-18.17C258.6,221.55,251.53,210.91,246.14,210.91Z"/><path d="M281.47,209a25.57,25.57,0,0,0-20.82,14.39,1.51,1.51,0,0,0,.69,2,1.55,1.55,0,0,0,.66.15,1.51,1.51,0,0,0,1.35-.84,22.47,22.47,0,0,1,18.42-12.73c6.52-.65,13.12,1.3,15.71,4.65a1.5,1.5,0,1,0,2.37-1.83,12.56,12.56,0,0,0-3.77-3.13,54.59,54.59,0,0,0-.7-32.19,1.5,1.5,0,1,0-2.84.95,51.65,51.65,0,0,1,.78,30A26.88,26.88,0,0,0,281.47,209Z"/><path d="M202.85,247.12h0a10.86,10.86,0,0,1-2.53-.33c-10.15-2.43-24-17.67-25.79-26.15a11.64,11.64,0,0,1,2-9.88,9.83,9.83,0,0,1,7.68-3.57,13.23,13.23,0,0,1,8,2.95c4.94,3.8,13.32,20.46,15.13,24.59.75,1.72,2.24,6.88.15,10.08A5.25,5.25,0,0,1,202.85,247.12Zm-18.61-36.93a6.74,6.74,0,0,0-5.35,2.47,8.67,8.67,0,0,0-1.42,7.37c1.53,7.39,14.66,21.71,23.55,23.84a7.6,7.6,0,0,0,1.83.25,2.29,2.29,0,0,0,2.17-1c1.08-1.66.47-5.27-.39-7.24-2.47-5.62-10.27-20.37-14.21-23.41A10.23,10.23,0,0,0,184.24,210.19Z"/><path d="M202.84,170.68h0a6.2,6.2,0,0,1-6.31-5.4,8.32,8.32,0,0,1,2.17-6.76c2.35-2.83,6.06-4.88,8.83-4.88a4.54,4.54,0,0,1,1.69.3,6.37,6.37,0,0,1,3.68,4.78,9.62,9.62,0,0,1-2.84,8.67A10.5,10.5,0,0,1,202.84,170.68Zm4.69-14c-1.62,0-4.57,1.45-6.52,3.8-.71.86-1.86,2.56-1.53,4.28a3.19,3.19,0,0,0,3.36,3,7.62,7.62,0,0,0,5.1-2.41,6.64,6.64,0,0,0,2-6,3.41,3.41,0,0,0-1.85-2.59A1.61,1.61,0,0,0,207.53,156.64Z"/><path d="M202.09,153c-3.39,0-5.08-1-5.9-1.85a3.21,3.21,0,0,1-.91-3.17,3.11,3.11,0,0,1,2.4-2.13c2.58-.58,10.32-5,14.26-8.93a1.5,1.5,0,0,1,2.12,2.12c-4.13,4.13-12.37,9-15.73,9.74a.4.4,0,0,0-.19.08,3,3,0,0,0,.44.38c.62.43,3.21,1.64,10.35-.37a1.5,1.5,0,1,1,.81,2.89A28.7,28.7,0,0,1,202.09,153Z"/></g><path id="顔" d="M237.34,134.33c3-.33,2.66,3,0,5-2.46,1.85-2.67,1.67-5.34,1.34s-3.38-2.55-1-4.34C232.34,135.33,234.34,134.67,237.34,134.33Zm-16.34.34a3,3,0,1,0,3,3A3,3,0,0,0,221,134.67Zm34.67-8.34a3,3,0,1,0,3,3A3,3,0,0,0,255.67,126.33Z"/></g><g id="Logo_Slogan_Kopie" data-name="Logo/Slogan Kopie"><path d="M213.33,252.39l-.69-.38c-.31.33-.61.65-.92,1-.23-.12-.46-.26-.68-.39l.92-1-.69-.39c.14-.16.28-.31.43-.46l.71.4.88-1-.71-.38.42-.47.72.39.9-1,.68.34-.9,1,.68.35.9-1,.69.33c-.3.35-.6.7-.91,1l.71.34-.4.5-.74-.36c-.29.34-.58.67-.88,1l.74.37-.42.49-.76-.38c-.3.33-.6.66-.91,1l-.7-.37C212.72,253,213,252.71,213.33,252.39Zm.64-1.82-.88,1,.67.36c.3-.33.6-.65.89-1Z"/><path d="M219,253.69c-.56.7-1.12,1.4-1.69,2.09l-1-.46.3-4,1,.44c-.08.9-.17,1.79-.26,2.69.58-.68,1.15-1.36,1.71-2l.84.34c0,.92-.07,1.83-.11,2.75.53-.72,1-1.44,1.57-2.18l1,.37q-1.2,1.64-2.43,3.21l-1-.41Z"/><path d="M224.47,254.28a1.75,1.75,0,0,1,1.23,1.11l-.83.42a.9.9,0,0,0-.64-.64,1.06,1.06,0,0,0-1.37.74,1,1,0,0,0,.63,1.41,1,1,0,0,0,.92-.15l.43.79a1.78,1.78,0,0,1-1.7.2,1.94,1.94,0,0,1-1.27-2.6A2,2,0,0,1,224.47,254.28Z"/><path d="M228.27,255.34a1.63,1.63,0,0,1,1.25,1l-.83.48a.85.85,0,0,0-.65-.6,1.12,1.12,0,0,0-1.36.83,1,1,0,0,0,.65,1.37,1,1,0,0,0,.92-.21l.46.76a2,2,0,0,1-3-2.2A2.15,2.15,0,0,1,228.27,255.34Z"/><path d="M232.41,257.88c.16-.54-.06-.75-.49-.83a1.31,1.31,0,0,0-1,.3l-.78,2.59-1-.21q.83-2.64,1.6-5.29l1,.18c-.19.66-.38,1.32-.58,2a2,2,0,0,1,1.49-.38c.81.13,1.07.65.86,1.42-.26.92-.52,1.84-.79,2.76l-1-.16C232,259.45,232.19,258.67,232.41,257.88Z"/></g></g></svg>