<?xml version="1.0" encoding="UTF-8"?>
<svg id="Artwork" xmlns="http://www.w3.org/2000/svg" width="277.65" height="299.88" viewBox="0 0 277.65 299.88">
  <path d="m85.84,175.28c0-1.58,1.25-2.86,2.8-2.86s2.8,1.28,2.8,2.86-1.25,2.86-2.8,2.86-2.8-1.28-2.8-2.86Zm34.96-84.33c3.62.45,3.9.69,7.23-1.81,3.61-2.71,4.07-7.23,0-6.78-4.07.45-6.78,1.36-8.59,2.71-3.23,2.43-2.26,5.42,1.36,5.87Zm59.58,71.31c1.55,0,2.8-1.28,2.8-2.86s-1.25-2.86-2.8-2.86-2.8,1.28-2.8,2.86,1.25,2.86,2.8,2.86Zm-84.7-28.76c1.55,0,2.8-1.28,2.8-2.86s-1.25-2.86-2.8-2.86-2.8,1.28-2.8,2.86,1.25,2.86,2.8,2.86Zm57.2-53.84c2.25,0,4.07-1.82,4.07-4.07s-1.82-4.07-4.07-4.07-4.07,1.82-4.07,4.07,1.82,4.07,4.07,4.07Zm-51.06,7.23c0,2.25,1.82,4.07,4.07,4.07s4.07-1.82,4.07-4.07-1.82-4.07-4.07-4.07-4.07,1.82-4.07,4.07Zm163.3,15.64c-4.79,9.49-8.92,17.68-8.7,25.16.18,5.65,1.92,11.64,3.78,17.98,3.99,13.65,8.51,29.14-4.2,42.93-10.1,10.96-20.73,14.04-26.23,14.9-4.33,11.05-10.56,20.56-19.17,27.14-9.21,31.11-40.86,59.4-76.19,67.77-4.11.97-8.43,1.47-12.83,1.47-19.94,0-38.55-10-48.14-19.91-5.7-5.89-8.62-11.94-8.44-17.51.33-10.3,7.14-17.21,16.93-17.21s18.78,6.17,24.68,16.09c4.46,7.5,12.77,9.08,18.94,9.08h.01c14.66,0,34.56-8.9,48.34-24.36-4.3.66-8.06.87-11.09.87-.4,0-.8-.01-1.2-.01-4.42,5.36-10.6,8.27-17.76,8.27-4.76,0-12.37-1.54-15.21-10.79-13.08-1.32-25.44-5.89-36.13-13.26-.33,1.1-.81,2.19-1.48,3.21-2.1,3.2-5.56,4.97-9.75,4.97-1.36,0-2.83-.19-4.37-.56-15.67-3.76-35.31-25.61-37.99-38.58-1.32-6.36-.05-12.32,3.58-16.78,2.43-2.98,5.78-5.02,9.51-5.88.2-1.25.52-2.44.94-3.54-4.07-2.11-10.3-3.88-19-2.66-8.32,1.17-14.35,5.4-17,11.9-2.67,6.56-1.55,14.48,2.86,20.18.04.06.07.12.1.17,2.27-.5,4.86-.08,7.55,1.29,3.4,1.74,6.62,4.82,9.06,8.69,2.52,4,3.82,8.18,3.93,11.84,1.97.5,6.58,1.91,7.9,4.41.48.9.55,1.9.19,2.83-.67,1.76-2.23,2.96-4.41,3.38-.05.01-.57.1-1.25.15-.18.89-.56,2.05-1.35,3.07l5.5,8.72c1.13,1.79,3.5,2.33,5.29,1.2.87-.55,1.47-1.4,1.69-2.4.23-1,.05-2.03-.49-2.89l-2.34-3.71c-.59-.94-.31-2.17.62-2.76.94-.59,2.17-.31,2.76.62l2.34,3.71c1.12,1.77,1.48,3.87,1.02,5.91-.46,2.04-1.69,3.78-3.46,4.9-1.3.82-2.75,1.21-4.18,1.21-.73,0-1.46-.11-2.16-.31-.02.14-.04.29-.08.43-.46,2.05-1.69,3.79-3.46,4.9-1.29.82-2.74,1.21-4.17,1.21-2.6,0-5.15-1.29-6.64-3.65l-2.34-3.71c-.59-.93-.31-2.17.62-2.76.94-.59,2.17-.31,2.76.62l2.34,3.71c1.13,1.79,3.51,2.33,5.29,1.2.87-.55,1.47-1.4,1.7-2.4s.05-2.03-.5-2.89l-5.5-8.72c-1.3.28-2.56.14-3.42-.07-.35.65-.69,1.1-.69,1.11-1.19,1.6-2.76,2.47-4.46,2.47-.13,0-.27,0-.41-.02-.99-.08-1.87-.57-2.47-1.39-1.73-2.33-.93-7.32-.55-9.2-3.33-1.75-6.48-4.79-8.87-8.58-4.94-7.82-5.23-16.36-.94-20.27-5-6.77-6.22-16.01-3.09-23.71,3.21-7.88,10.36-12.98,20.15-14.35,9.64-1.36,16.66.62,21.36,3.06.89-1.41,1.87-2.62,2.79-3.62-.26.01-.52.01-.78.01-19.47,0-23.71-13.47-23.76-13.62-.19-.66.06-1.37.62-1.77.53-.37,1.23-.39,1.77-.04.28.14,3.73,1.68,20.76,2.12,1.3.03,2.52.02,3.68-.03,1.59-9.15,4.81-17.95,9.54-26.02-.28-.75-.49-1.55-.65-2.38-.76-4.02.49-8.29,3.49-12.09.16-.89.52-1.69,1.03-2.43-3.99-1.61-5.89-4.56-6.32-7.28-13.46,4.44-33.15,11.76-44.8,19.95-.33.23-.72.35-1.11.35-.2,0-.4-.03-.59-.09-.58-.19-1.03-.63-1.24-1.2-.15-.43-15.62-43.71-19.09-54.6-.24-.76.01-1.58.62-2.09.92-.75,22.88-18.39,62.32-25.52.7-1.26,1.87-2.26,3.35-2.72,1.48-.45,3.05-.31,4.42.42,1.36.72,2.37,1.93,2.82,3.41l12.34,40.05,8.66-17.04c.56-4.15,5.51-36.18,6.1-39.99.08-.54.39-1.02.83-1.33,1.32-.92,32.75-22.46,73.64-11.72.57.15,1.05.54,1.3,1.07l16.61,34.65,14.29,9.86c1.65-3.56,5.32-11.09,10.84-20.33l-.8-.73c-1.32-1.18-1.42-3.21-.23-4.53,1.16-1.29,3.13-1.41,4.45-.3,4.44-7.01,9.82-14.67,16.06-22.16l-.41-.36c-.7-.64-1.06-1.51-1.06-2.39,0-.77.28-1.53.83-2.15,1.19-1.32,3.22-1.42,4.54-.23l.3.27c.56-.63,1.12-1.26,1.7-1.88,2.24-2.43,6.04-2.6,8.47-.38,1.22,1.11,1.93,2.7,1.96,4.35,0,1.05-.26,2.09-.76,3,4.91,4.54,21.08,21.33,24.04,47.6,2.01,17.84-5.54,32.81-12.2,46.02ZM29.96,235.64c-.37,2.11-.44,4.34-.17,5.2.91-.24,1.62-1.8,1.77-2.3.06-.73.52-1.41,1.25-1.7.7-.28,1.45-.14,2,.3.5.24,2.1.71,3.08.09.96-.6,1.17-2.16,1.15-2.7-.18-.69.02-1.46.58-1.98.57-.53,1.36-.66,2.04-.41.55.08,2.35.09,2.98-.66-.66-.62-2.7-1.51-4.77-2.09l-9.91,6.26Zm-5.73-7.68c1.24,1.19,2.57,2.16,3.92,2.85.32.16.72.34,1.15.51l7.14-4.51c.14-1.77-.16-3.85-.88-6.02-3.72,4.55-8.27,6.41-11.33,7.17Zm7.28-14.55c-7.44,1.03-11.17,6-12.22,7.68.39.81.84,1.63,1.37,2.46.19.3.39.59.59.88,1.85-.19,8.17-1.32,12.41-7.86-.17-.3-.34-.6-.53-.89-.5-.8-1.05-1.56-1.62-2.27Zm-13.82,3.15c1.99-2.29,5.35-5.17,10.4-6.55-.8-.62-1.62-1.17-2.46-1.59-.92-.47-2.38-1.07-3.85-1.07-.77,0-1.55.17-2.25.61-1.96,1.24-2.75,4.53-1.85,8.6ZM244.78,6.41l3.08,2.78c.61-.63,1.18-1.19,1.67-1.67.42-.41.65-.96.64-1.55,0-.59-.26-1.14-.7-1.54-.86-.79-2.21-.72-3.02.14-.57.61-1.12,1.23-1.68,1.85Zm-14.5,32.21l.89.81c.06.05.11.12.16.18,7.94-.25,13.32-2.46,15.99-6.59,3.49-5.41,1.54-12.79.63-15.51-.44-.13-.85-.35-1.21-.68l-.36-.32c-4.32,4.95-9.97,12.21-16.1,22.11Zm-5.72-5.16l2.79,2.52c6.14-9.83,11.8-17.08,16.15-22.07l-2.92-2.64c-6.25,7.52-11.61,15.2-16.02,22.19Zm2.8,11.1c-.15-.1-.3-.21-.44-.33-2.98,5.15-6.03,10.9-9.07,17.3,2.48.02,4.87.02,7,.02h3.15c2.16-7.38-.4-16.19-.64-16.99Zm-16.73,14.4l1.12.77,2.04,1.34c3.41-7.28,6.85-13.75,10.2-19.48l-2.82-2.55c-5.56,9.38-9.13,16.86-10.53,19.92Zm-12.73,10.08c-.63-.05-1.18-.05-1.54-.02.53.87,1.83,2.38,3.91,4.11l.52.44c14.13,12.04,24.76,14.57,31.19,14.57h0c2.3,0,4.52-.32,6.61-.95,9.92-2.98,16.02-9.13,18.41-13.89.89-1.78,1.07-2.95,1.07-3.5-1.35-.14-4.86-.21-10.46-.21-2.98,0-6.37.02-9.98.03-4.1.02-8.49.04-12.86.04-8.09,0-19.69-.07-26.88-.65Zm-8.05,102.6c.16-.76.89-1.25,1.65-1.09,4.02.83,11.95-5,15.34-7.49.79-.58,1.44-1.05,1.9-1.36,1.84-1.23,3.77-2.03,5-2.48-.17-1.83-.85-3.54-2.3-4.98-3.83-3.8-12.95-8.79-32.48-3.02.52-.08,1.04-.13,1.58-.13,5.7,0,10.33,4.55,10.33,10.14s-4.63,10.14-10.33,10.14-10.33-4.55-10.33-10.14c0-3.94,2.3-7.35,5.65-9.03-1.25.42-2.53.87-3.85,1.37-1.83.7-3.59,1.27-5.3,1.74-.02.07-.04.14-.08.21-.43.88-8.26,17.42-1.49,29.58,0,0,0,0,0,0,8.51-4.89,16.54-9.5,29.27-6.36,2.18.54,4.32,1.3,6.41,2.23,1.76-1.54,3.48-3.18,5.13-4.94,2.38-2.54,6.64-8.28,7.62-13.73-.98.41-2.16.99-3.29,1.74-.44.29-1.05.74-1.8,1.29-3.96,2.9-11.05,8.1-16.23,8.1-.46,0-.91-.04-1.33-.13-.76-.16-1.25-.9-1.09-1.65Zm14.06,10.84s.04.02.06.03c0-.04.02-.07.02-.11-.03.02-.05.05-.08.07Zm-33.04-31.91c3.37-1.28,6.5-2.28,9.41-3.05-3.28-.55-7.61-.78-13.85-.29-9.03.32-15.67,1.87-22.07,3.39,1.79,1.3,3.25,2.36,4.14,3.01,6.73.75,13.65.25,22.37-3.06Zm2.4,10.64c0,3.9,3.26,7.08,7.27,7.08s7.27-3.17,7.27-7.08-3.26-7.08-7.27-7.08-7.27,3.17-7.27,7.08Zm51.25-26.01c-8.88,2.08-25.83,4.56-36.99-3.11-.38-.23-.77-.46-1.15-.69-.36-.08-.71-.21-1.05-.4-3.75-2.11-7.54-3.54-11.58-4.37-1.78-.37-3.68-.55-5.8-.55-.85,0-1.7.04-2.56.09,1.05,1.01,1.81,2.36,2.06,3.9.63,3.82-1.97,7.45-5.79,8.07-.06,0-.12.01-.18.01-.53,0-.99-.38-1.08-.92-.1-.6.31-1.16.91-1.26,2.63-.43,4.41-2.92,3.98-5.55-.32-1.96-1.79-3.44-3.6-3.9-3.56.47-7.16,1.24-10.69,2.02-.81,2.57-3,4.62-5.84,5.08-.04,0-.08,0-.11,0,.15,3.68-2.46,6.98-6.18,7.59-.06.01-.13.02-.19.02-.56,0-1.04-.4-1.14-.97-.1-.63.32-1.22.95-1.33,2.76-.45,4.64-3.07,4.19-5.84-.17-1.04-.64-1.95-1.32-2.66-1.47.21-2.85.34-4.13.34-.59,0-1.16-.03-1.69-.08-5.9-.62-10.56-3.71-11.89-7.87-.49-1.53-.64-3.53.24-5.92-4.04.26-8.17.65-12.24,1.22-.16.11-.34.19-.54.23-.11.02-.23.04-.34.04-.16,0-.31-.03-.45-.08-1.52.23-3.03.47-4.52.75,3.51,3.94,9.69,13.43,4.62,27.55.78.06,1.54.12,2.3.19,1.24-5.68,6.98-11.69,7.77-12.5.51-.52,1.33-.56,1.89-.1,2.8,2.3,11.75,8.89,18.6,13.9.77-.18,1.55-.36,2.32-.55,6.65-1.59,13.53-3.23,22.97-3.56,11.47-.91,16.92.56,20.98,2.01,7.69-1.21,13.5-.58,17.81.81,8.31-2.45,15.31-7.84,19.48-11.65Zm-102.92,2.02c-2.05,2.29-5.21,6.43-6.1,9.91,7.38.88,13.53,2.37,19.12,3.73,2.68.65,5.24,1.27,7.75,1.78-6.36-4.64-16.53-12.09-20.78-15.42Zm-26.46-19.2c0,.08,0,.15-.01.23,4.27-1.24,8.84-2.19,13.47-2.91-.7-1.64-1.73-2.92-2.52-3.74-4.25,1.48-8.05,1.98-10.05,1.09-1.17-.52-2.48-1.42-3.68-2.69-.1.08-.21.17-.32.26,1.41,1.25,2.44,3.06,2.87,5.17.18.86.25,1.73.23,2.6Zm97.09-50.69c.24-.67.66-1.2,1.25-1.59-.84-.54-1.69-1.04-2.55-1.54-3.45-.15-6.83-.22-10.13-.22-.1,4.6-1.02,19.59-8.56,30.95,7.66-2.61,21.8-6,43.13-5.78-.29-.49-.56-1-.85-1.48-4.86-2.37-10.34-5.88-16.36-11.02l-.49-.41c-6.66-5.55-5.74-8.09-5.44-8.92Zm-4.44,53.06c.03.05.06.11.09.16-2.31-9.65-6.27-13.79-9.05-15.55-1.11-.39-2.24-.74-3.39-1.05-.04-.06-.08-.12-.12-.18-1.57-.37-2.73-.48-2.73-.48-3.31-.66-6.74-.98-10.18-.98-11.43,0-22.93,3.55-30.31,10.05-3.9,3.43-5.59,6.74-4.77,9.33.85,2.66,4.31,4.75,8.61,5.2.01,0,.03,0,.04,0,2.25.06,1.87.1,3.51-.08,2.84-.29,6.26-1.04,9.82-1.83,5.91-1.31,12.41-2.76,18.65-2.76,2.24,0,4.45.19,6.59.63,4.65.97,8.75,2.58,12.69,4.79l1.77.72.2.08c-.02-.21-.04-.43-.07-.64.02-.25-.01-.51-.09-.76-.28-2.24-.64-4.26-1.07-6.09-.06-.19-.12-.38-.19-.57Zm-43.87,9.67c.27.43.49.89.67,1.38.06-.02.11-.06.18-.07,1.43-.24,2.62-1.06,3.37-2.18-1.45.32-2.86.61-4.22.86Zm-14.52-20.75c2.75-2.42,6.02-4.47,9.63-6.12-5.21,0-10.35-1.01-15.29-3.64-3.23,4.48-8.95,8.34-14.48,10.79.94,1.14,1.94,2.66,2.6,4.53,4.59-.61,9.19-1,13.58-1.23.96-1.36,2.24-2.81,3.97-4.33Zm92.38-7.79c-.84-2.67-2.47-6.19-3.52-8.31-23.1-.6-38.02,3.17-45.42,5.77l3.3.75,45.64,1.8Zm-43.48-37.52c-32.81.36-57.87,7.73-73.28,13.97-3.09,3.18-5.86,6.66-8.25,10.45-3.6,5.72-4.85,10.92-3.6,15.03.91,3,3,4.85,4.51,5.52,2.56,1.14,18.86-4.52,23.6-13.13.27-.49.72-.84,1.26-.99.54-.14,1.11-.06,1.58.23,11.12,6.84,23.62,3.72,34.46.25,1.07-.34,2.21.25,2.56,1.32.18.57.09,1.17-.19,1.65,1.26-.03,2.52-.01,3.78.04.16-.21.35-.4.59-.53.15-.08,1-.55,2.59-1.23.01-.02.02-.04.03-.05,9.08-10.74,10.22-27.67,10.35-32.52Zm35.34,82.87c.4.2.78.38,1.14.53,5.21,2.11,12.27,1.53,15.36,1.13.09-2.53.2-7.83-.2-14.11-2.41,2.58-8.33,8.36-16.3,12.46Zm15.99-16.35c-.8-8.49-2.6-18.04-6.49-24.93l-39.08-1.54c4.05,4.05,8.32,11.89,9.42,27.06.26.24.61.57,1.02.93,14.43,5.24,34.65-1.41,34.88-1.48.08-.03.17-.03.26-.04ZM101.82,43.34c21.49-10.82,45.05-13.14,61.18-13.14,7.5,0,13.87.49,18.12.94l-7.83-16.35c-6.96-1.75-14.08-2.63-21.19-2.63-25.31,0-43.79,11.08-47.56,13.52-.39,2.48-1.53,9.91-2.72,17.66Zm-2.65,18.74c22.41-13.61,48.47-16.55,66.76-16.55,9.83,0,17.78.85,22.15,1.45l-6.35-13.26c-4.57-.51-11.08-1.02-18.73-1.02-16.85,0-40.3,2.5-61.42,13.55-.92,5.97-1.83,11.94-2.41,15.83Zm-8.06,17.87c14.68-7.62,56.06-25.12,116.07-18.5l-16.44-11.34c-4.98-.87-55.25-8.84-92.63,16.05l-7,13.78Zm.18,46.69c-.13.14-.24.28-.37.41-.42.42-.86.81-1.32,1.17-.71.96-1.13,2.08-1.13,3.29,0,3.43,3.3,6.22,7.36,6.22s7.36-2.79,7.36-6.22-3.3-6.22-7.36-6.22c-1.71,0-3.29.5-4.54,1.34Zm-2.88-13.91c-.2-.08-.47-.12-.79-.12-2.19,0-6.19,1.97-8.83,5.16-.72.87-1.78,2.39-2.08,4.08-.1.56-.11,1.15,0,1.73.62,3.32,2.82,4.01,4.56,4.01,2.28,0,4.87-1.22,6.92-3.27,2.28-2.28,3.31-5.3,2.74-8.06-.35-1.72-1.29-3.03-2.51-3.52Zm-7.68-9.1l-1.04-3.38c-1.8.86-3.38,1.48-4.54,1.74-.19.04-.25.11-.25.11.02,0,.14.22.59.52.51.35,2,1.09,5.24,1.01Zm-14.48-60.17l19.69,63.92,3.67-1.13-19.69-63.92c-.15-.49-.48-.89-.94-1.13-.28-.15-.59-.22-.9-.22-.19,0-.38.03-.57.09-1.01.31-1.58,1.39-1.27,2.4Zm12.04,52.23l-15.74-51.09c-.05-.15-.09-.31-.12-.47-9.87,1.87-18.62,4.43-26.18,7.2-13.59,4.98-23.28,10.61-28.53,14.05-1.57,1.03-2.75,1.87-3.52,2.43.54,1.64,1.25,3.75,2.08,6.18,3.99,11.67,10.75,30.7,14.26,40.59.58,1.62,1.07,3.01,1.45,4.06,0,0,0,0,0,0,4.07-2.64,8.84-5.15,13.85-7.5,16.65-7.78,36.1-13.63,42.45-15.45Zm-6.5,44.92c.34,2.96,3.9,5,6.55,6.27,1.09.52,3.02,1,5.45,1.42,5.86-1.31,13.03-2.24,23.24-1.82,6.11-15.68-3.12-24.95-5-26.62-2.72.59-5.35,1.28-7.83,2.07-.08.22-.17.44-.26.66.62-.1,1.25-.16,1.9-.16,5.65,0,10.25,4.09,10.25,9.11s-4.6,9.11-10.25,9.11-10.25-4.09-10.25-9.11c0-.32.02-.64.06-.96-1.45.57-2.93.89-4.38.89-1.25,0-2.39-.23-3.42-.66-4.26,3.86-6.35,7.23-6.05,9.81Zm-5.64,12.2s.02,0,.04,0c3.31-.58,6.32-1.44,9.56-2.37.54-.16,1.09-.31,1.65-.47-.15-.06-.31-.12-.44-.19-2.89-1.39-6.63-3.57-7.93-7.07-.48,1.35-.93,2.71-1.34,4.08.41-1.38.85-2.74,1.34-4.08-.01-.03-.03-.06-.04-.09-.39,1.08-.76,2.17-1.1,3.27-.7,2.28-1.28,4.6-1.74,6.94Zm-11.1,28.44c.33-.02.66-.05,1-.05.56,0,1.12.04,1.68.11,1.59-1.86,3.62-4,5.98-6.08-.63-4.63-.23-8.32,1.2-11.14,2.07-4.07,5.78-5.39,8.39-6.02,6.58-1.6,17.5,4.81,29.19,16.93-.55-1.44-.64-2.99-.25-4.47-.09-.01-.17-.02-.25-.05-1.84-.72-3.29-2.11-4.08-3.91-.79-1.81-.84-3.81-.12-5.65.72-1.84,2.11-3.29,3.91-4.08,1.75-.77,3.7-.83,5.49-.17.78-1.4,1.98-2.51,3.48-3.17,1.81-.79,3.81-.84,5.65-.12.59.23.89.9.66,1.5-.23.59-.9.89-1.5.66,0,0,0,0,0,0-1.26-.49-2.64-.46-3.89.08-1.24.54-2.2,1.54-2.69,2.81-1.02,2.61.28,5.56,2.89,6.58h0c.35.14.57.42.67.76.32.31.44.8.26,1.24-.23.59-.9.89-1.5.66-2.61-1.02-5.56.28-6.58,2.89-.49,1.26-.46,2.64.08,3.89.54,1.24,1.54,2.2,2.8,2.69,0,0,0,0,0,0,.59.23.89.9.66,1.5-.18.46-.61.74-1.08.74-.14,0-.28-.03-.42-.08-.16-.06-.31-.14-.47-.21.14.16.28.31.41.46,2.69,3.06,6.01,5.82,9.61,8.27,3.85,2.03,7.95,3.87,12.22,5.34.1-.51.21-1.01.35-1.5-.37-.16-.74-.33-1.1-.52-9.35-4.75-12.27-15.73-12.39-16.19-.14-.54.06-1.12.5-1.46.44-.34,1.05-.39,1.54-.12.06.04,4.81,2.63,11.63,3.95,0-.32.03-.64.07-.96-3.54-1.61-5.25-5.73-3.82-9.4,1.35-3.46,5.04-5.32,8.56-4.5,1.53-3.71,5.76-5.54,9.51-4.07.59.23.89.9.66,1.5-.23.59-.9.89-1.5.66,0,0,0,0,0,0-2.61-1.02-5.56.28-6.58,2.89-.49,1.26-.46,2.64.08,3.89.54,1.24,1.54,2.2,2.8,2.69,0,0,0,0,0,0,.35.14.57.42.67.76.32.31.44.8.27,1.24-.23.59-.9.89-1.5.66,0,0,0,0,0,0-1.26-.49-2.64-.46-3.89.08-1.24.54-2.2,1.54-2.69,2.81-.28.71-.37,1.45-.32,2.16,1.52.21,3.13.33,4.79.36.47,0,.94.02,1.42,0,11.96-.28,15.56,3.53,15.93,3.97.5.59.43,1.48-.16,1.98-.51.43-1.23.41-1.74.02-.07-.06-.16-.1-.22-.17-.09-.1-3.24-3.27-13.74-3-7.91.18-14.69-2.01-18.45-3.57,1.46,3.36,4.48,8.63,9.85,11.35.28.14.56.27.85.4,1.01-1.95,2.51-3.69,4.68-5.14,1.69-1.12,3.51-1.69,5.42-1.69,3.29,0,6.59,1.77,9.63,4.41,1.44,1.25,2.82,2.7,4.11,4.25,2.84-1.05,5.45-2.37,7.97-3.76-6.05-11.01-1.91-24.94.27-30.67-10.41,1.86-18.76-.15-28.07-2.42-7.2-1.75-15.37-3.74-25.84-4.27-15.54-.79-23.6,1.54-31.39,3.78-6.13,1.76-11.92,3.42-20.56,3.2-9.73-.25-15.29-.86-18.47-1.44,2.6,3.84,9.15,9.79,24.29,8.04.73-.09,1.43.34,1.69,1.04s0,1.47-.61,1.88c-.42.28-8.7,6-7.91,15.02Zm67.27,33.58c-.23.59-.53,1.14-.89,1.64,3.33,1.16,7.02,2.3,10.76,3.2,0-.06-.01-.12-.02-.18-.39-2.54-1.06-5.34-1.71-8.06-1.05-4.37-2.15-9-2.31-13.34-.58-.27-1.17-.55-1.75-.83.78,1.73.89,3.76.16,5.67-.94,2.44-3.04,4.08-5.42,4.57.41.51.77,1.07,1.04,1.68.8,1.8.85,3.81.15,5.65Zm10.94-50.14c-2.41-.55-4.93.71-5.86,3.09-.94,2.42.12,5.12,2.36,6.31.36-.72.83-1.38,1.39-1.94.64-.65,1.4-1.18,2.26-1.55.53-.23,1.09-.4,1.65-.5-.48-.56-.89-1.19-1.19-1.88-.25-.56-.41-1.14-.51-1.73-.1-.59-.14-1.2-.09-1.8Zm-45.99,28.54c-.5.09-.99.13-1.46.13-5.68,0-9.58-5.99-13.68-12.31l-.34-.53c-1.33-2.05-2.8-3.09-4.45-3.17.77,3.72,2.17,8.07,4.2,13.04,3.09,4.19,6.45,9.89,9.31,15.15,5.95-.36,15.92-3.78,21.67-12.34,3.83-5.69,3.34-9.02,2.66-10.56-.32-.34-.63-.67-.93-1.01-2.54-2.89-5-5.44-7.34-7.68,1.64,4.62.64,9.39-2.74,11.52-1.16.73-2.48,1.1-3.88,1.1-1.11,0-2.28-.23-3.45-.7-2.47-.98-4.71-2.92-6.31-5.45-3.4-5.38-2.81-11.88,1.31-14.48,1.13-.71,2.41-1.05,3.74-1.06-4.19-2.62-7.64-3.84-10.1-3.84-.51,0-.98.05-1.4.16-3.21.78-5.15,2.13-6.29,4.36-1.11,2.18-1.4,5.19-.91,8.98,2.19-.08,4.89.8,7.27,4.46l.34.53c4.1,6.31,7.65,11.75,12.31,10.95.77-.14,1.49.38,1.62,1.14.13.76-.38,1.49-1.14,1.62Zm-3.73-24.58c-2.58,1.63-2.72,6.24-.31,10.06,1.24,1.96,2.94,3.45,4.78,4.18,1.67.67,3.24.62,4.43-.13,2.58-1.63,2.72-6.24.31-10.06-1.82-2.88-4.66-4.64-7.06-4.64-.79,0-1.52.19-2.16.59Zm22.77-9.25l.2-.52c-1.26-.49-2.64-.46-3.89.08-1.24.54-2.2,1.54-2.69,2.81s-.46,2.64.08,3.89c.54,1.24,1.54,2.2,2.8,2.69,0,0,0,0,0,0,.11.04.19.11.28.18,1.12-1.82,2.95-3.03,4.98-3.4-1.35-1.55-2.01-3.63-1.77-5.72Zm-21.3,67.14c0-.44-.02-.9-.06-1.36-.06-.69-.17-1.38-.32-2.06-.24-1.12-.57-2.17-.94-3-.31-.72-.69-1.54-1.12-2.45-4.15-8.79-13.29-25.56-18.14-29.29-1.01-.78-2.05-1.42-3.1-1.91-1.75-.83-3.54-1.25-5.28-1.25-2.92,0-5.49,1.19-7.25,3.35-2.05,2.52-2.74,6.07-1.92,10,2.07,10.01,19.87,29.43,31.92,32.32.92.22,1.76.33,2.48.33,1.88,0,2.58-.74,2.94-1.29.09-.14.17-.29.25-.45.15-.32.26-.68.35-1.06.04-.19.08-.39.1-.59.06-.41.08-.84.08-1.28Zm47.5-.5c.01-1.16,0-2.3-.05-3.41-11.22-2.58-22.05-7.34-24.89-8.64-.38-.17-.63-.29-.7-.32-.7-.33-1-1.17-.67-1.87.33-.7,1.17-1,1.87-.67.09.04,4.68,2.19,11.07,4.53.44-.47.79-1.03,1.03-1.65.49-1.27.45-2.65-.1-3.89-.55-1.24-1.55-2.19-2.82-2.67-.24-.09-.41-.26-.54-.46-.38-.31-.54-.82-.36-1.3.23-.6.9-.9,1.49-.66,2.62,1,5.56-.31,6.56-2.92,1-2.61-.31-5.56-2.92-6.56-.51-.19-.77-.7-.71-1.22-4.38-2.46-8.66-5.31-12.36-8.56-.15,2.32-1.08,5.3-3.57,9.01-5.91,8.78-15.91,12.64-22.56,13.44,1.54,2.91,2.86,5.57,3.83,7.6,5.86,6.57,12.51,10.54,21.33,14.98,8.6,4.33,17.97,5.88,24.91,6.38-.1-2.33-.02-4.79.06-7.21.01-.32.02-.65.03-.97-2.44.91-5.3,1.56-8.48,1.56-4.9,0-10.56-1.54-16.62-6.06-.62-.46-.75-1.34-.29-1.96.26-.34.64-.52,1.04-.54.32-.02.65.05.93.26,9.67,7.21,18.02,6.14,23.5,3.8Zm28.44-4.69c.09-3.85-.52-8.1-2.09-13.49-.44-1.59-1.24-3.51-2.3-5.56-.45-.88-.96-1.77-1.5-2.68-.54-.9-1.12-1.81-1.74-2.7-.61-.89-1.26-1.77-1.92-2.61-.89-1.13-1.82-2.2-2.77-3.17-.48-.49-.96-.95-1.44-1.38-2.43-2.16-4.93-3.56-7.22-3.56-1.12,0-2.17.33-3.2,1.02-3.6,2.4-4.77,5.9-4.62,10.5.05,1.54.25,3.2.55,4.98.1.59.21,1.2.33,1.83.37,1.87.82,3.86,1.33,5.98.17.7.34,1.4.5,2.11.5,2.12.96,4.25,1.27,6.27.54,3.51.41,7.43.28,11.22-.01.37-.02.74-.04,1.11-.1,3.32-.16,6.63.33,9.27.33,1.76.89,3.24,1.84,4.22,1.11,1.15,2.84,1.71,5.29,1.71,12.4,0,14.85-13.02,14.95-13.57.02-.12.05-.24.08-.35.6-1.91,1.1-3.73,1.46-5.56.36-1.83.57-3.65.62-5.58Zm12.72-29.82c.5-.4,1.18-.46,1.75-.17s.9.9.85,1.53c-.95,13.55,10.73,22.86,14.73,25.64,3.2-6.78-.71-21.95-2.62-27.58-.24-.72.05-1.51.7-1.89s1.49-.26,2,.3c7.07,7.73,21.54,10.19,28.84,10.96l-9.69-9.2c-4.81-4.57-10.55-7.77-16.58-9.25-11.48-2.83-18.63,1.28-26.91,6.03-3.46,1.99-7.01,4.01-11.01,5.59,2.11,2.92,3.89,5.98,5.16,8.66,2.67-2.37,6.7-5.75,12.78-10.62Zm8.35,44.41c1.38-7.24,1.62-13.85,1.21-19.64-4.21-4.11-8.84-10.28-9.96-18.19-1.14.25-2.28.48-3.45.68-2.21,1.83-4.3,3.59-6.07,5.13-.1.19-.21.38-.31.58.26.68.46,1.31.62,1.87,3.48,11.94,2.66,19.18.03,27.58-.26,1.42-.75,3.1-1.5,4.87,4.8.01,11.59-.57,19.43-2.88Zm18.97-2.34c-4.5,2.55-8.55,3.94-11.57,4.69-12.72,22.58-39.62,39.83-62.99,40.27-12.21.2-21.67-4.4-26.81-13.04-5.76-9.69-14.57-13.28-20.3-11.8-3.84.99-6.04,4.19-6.2,9.02-.14,4.23,3.6,9.88,10,15.11,11.5,9.4,31.24,16.96,49.4,12.66,30.64-7.26,58.23-30.55,68.46-56.92Zm19.99-26.44c-.7-.87-1.79-2.24-3.1-3.84-6.71-.82-17.32-2.9-24.91-8.15,1.93,7.37,4.43,20.53-.17,26.58-.31.41-.79.63-1.28.63-.28,0-.55-.07-.81-.22-.19-.11-1.48-.88-3.27-2.25.08,4.58-.23,9.56-1.13,14.91,6.15-1.15,22.29-6.17,34.67-27.67Zm9.2-54.58c-1.48.18-3.56.36-5.91.36-3.47,0-7.51-.4-11-1.82-.34-.14-.69-.3-1.06-.48.56.45,1.06.9,1.49,1.33,7.5,7.45.65,19.37-4.61,25.38-.39,2.39-.91,4.87-1.56,7.43,1.71,1.2,3.36,2.52,4.91,4l11.52,10.93c2.91-8.83,7.31-26.05,6.22-47.14Zm32.08-51.47c6.45-12.81,13.78-27.33,11.87-44.22-2.69-23.88-17.16-39.91-22.39-44.99l-.2.76c.81,1.2.75,2.84-.26,3.96-.06.07-.13.12-.2.18,1.11,3.39,3.07,11.57-1.07,17.98-3.2,4.94-9.23,7.64-17.94,8.03-.14.42-.35.82-.67,1.17-.21.24-.46.42-.72.58.72,2.65,2.35,10.08.65,17,2.14-.01,4.24-.02,6.27-.03,3.61-.02,7-.03,9.99-.03,9.24,0,11.54.16,12.95.51,3.36.84,5.59,3.82,5.68,7.59.16,7.14-7.76,20.15-25.29,25.41-2.84.85-5.85,1.29-8.94,1.29-1.33,0-2.67-.08-4.03-.24.9,2.1,1.74,4.25,2.51,6.44,8.02,22.66,11.66,65.55.61,97.48,5.36-1.18,14.19-4.44,22.57-13.53,11.48-12.46,7.41-26.39,3.47-39.86-1.91-6.54-3.71-12.72-3.9-18.78-.25-8.29,4.26-17.24,9.04-26.7ZM48.79,66.58c-1.92-.97-3.22-2.51-3.87-4.5-.49-1.52-.48-3.09-.02-4.67-6.24-1.17-13.91.61-19.58,5.43-3.96,3.37-6.46,7.5-7.63,12.51.49-.21.77-.33,1.04-.45,1.95-.92,3.9-1.83,5.85-2.75.61-.29,1.11-.17,1.38.37.27.56.07,1.06-.56,1.38-.68.35-1.36.72-2.17,1.16,5.62,6.09,11.11,12.21,16.64,18.53-.29-5.05-.53-9.89-.75-14.74,0-.2-.17-.42-.31-.58-2.03-2.22-4.09-4.41-6.14-6.61-.31-.33-.56-.35-.98-.19-.56.22-1.15.38-1.73.54-.66.17-1.23-.21-1.26-.84-.02-.54.29-.86.82-1.06,2.48-.93,4.97-1.84,7.44-2.8,1.34-.52,2.63-1.14,3.95-1.72.64-.28,1.17-.18,1.43.42.26.59-.02,1.05-.64,1.35-.71.34-1.4.7-2.18,1.09,5.4,6.21,10.67,12.43,15.96,18.84-.24-4.01-.39-7.82-.66-11.63-.28-4.08-2.23-7.16-6.03-9.08Zm-6.61,34.36c3.98-.13,9.49-2.48,12.3-5.22-4.27-4.89-8.6-9.74-13.15-14.72.22,6.83.5,13.39.85,19.94Zm-3.98.1c-6.82-7.37-13.79-14.62-20.89-21.72-.18,11.72,9.43,20.97,20.89,21.72Zm19.46-33.64c-.18.78-.21,1.6-.21,2.4-.02,5.25.03,10.49.11,15.72.04,2.28.08,4.57.13,6.91,2.8-3.06,5.13-8.42,5.23-13.72.08-4.82-1.34-9.17-4.31-13.09-.42.57-.81,1.15-.95,1.77Zm2.84,27.44c-8.17,10.04-22.76,12.74-33.99,6.49-11.45-6.37-16.44-20.88-10.42-32.67,5.43-10.63,17.72-16.79,29.64-14.84,1.31-1.44,2.83-2.5,4.42-3.07.06-.02.09-.03.15-.05,5.13-1.84,10.64.6,12.25,5.34.02.05.03.08.05.13.81,2.38.49,5.01-.81,7.29,6.94,9.44,5.97,22.48-1.28,31.39Zm4.89-19.15c-.49-4.17-1.88-8.12-4.39-11.59-.19-.27-.42-.57-.42-.57,0,0,.19-.29.51-.79,1.04-1.98,1.26-4.22.57-6.26-.02-.05-.03-.08-.05-.13-1.46-4.26-6.41-6.44-11-4.79-.06.02-.09.03-.15.05-1.53.55-3,1.62-4.25,3.08,0,0,0,0,0,0-.09.11-.15.19-.15.19,0,0-.34-.04-.77-.12-3.84-.63-7.7-.39-11.53.75-8.62,2.57-14.6,8-17.7,15.93-1.83,4.67-2.02,9.45-.77,14.1,3.3,12.21,16.08,19.91,28.2,17.91,12.32-2.04,23.47-14.43,21.91-27.76Zm24.95,167.6c.51-.52,1.02-1.05,1.53-1.57-.38-.22-.77-.44-1.15-.66.24-.25.48-.51.71-.76.39.22.78.44,1.17.66.49-.53.98-1.06,1.46-1.6-.39-.21-.78-.43-1.17-.64.23-.26.46-.52.69-.78.4.22.8.44,1.2.65.5-.56,1-1.12,1.49-1.68.37.19.75.38,1.12.57-.49.57-.99,1.14-1.49,1.7.38.19.75.39,1.13.58.5-.57.99-1.14,1.49-1.72.38.19.76.37,1.14.55-.5.58-1,1.15-1.51,1.73.39.19.78.38,1.18.57-.22.28-.45.55-.67.83-.41-.19-.81-.39-1.21-.59-.49.55-.98,1.1-1.47,1.65.41.21.82.41,1.23.62-.23.27-.46.55-.7.82-.42-.21-.84-.42-1.25-.64-.5.55-1.01,1.1-1.51,1.64-.39-.21-.77-.42-1.15-.63.52-.53,1.03-1.07,1.54-1.61-.38-.2-.77-.41-1.15-.62-.51.54-1.02,1.07-1.53,1.59-.38-.21-.76-.43-1.13-.65Zm3.4-1.72c.37.2.75.4,1.12.6.49-.54.98-1.08,1.47-1.63-.38-.19-.75-.39-1.13-.59-.48.54-.97,1.08-1.46,1.62Zm5.75-.44c-.16,2.23-.33,4.46-.5,6.68.56.26,1.13.52,1.69.77.95-1.14,1.88-2.3,2.81-3.48-.09,1.53-.17,3.05-.26,4.58.56.23,1.13.46,1.7.69,1.36-1.75,2.71-3.53,4.03-5.33-.55-.2-1.1-.4-1.64-.6-.86,1.21-1.72,2.41-2.6,3.6.06-1.52.12-3.03.17-4.55-.46-.19-.93-.38-1.39-.57-.93,1.15-1.87,2.28-2.82,3.4.14-1.48.28-2.97.42-4.45-.54-.24-1.07-.49-1.61-.74Zm13.12,4.97c-1.87-.58-3.66.26-4.32,2.11-.67,1.86.2,3.69,2.11,4.32,1.26.42,2.22.11,2.83-.34-.24-.43-.48-.87-.72-1.31-.43.32-.97.43-1.53.25-.98-.32-1.41-1.28-1.03-2.34.37-1.06,1.3-1.54,2.26-1.23.55.17.92.54,1.06,1.06.46-.23.92-.46,1.38-.69-.22-.68-.79-1.45-2.03-1.84Zm6.29,1.75c-1.89-.45-3.67.51-4.3,2.41-.64,1.91.27,3.67,2.2,4.17,1.28.33,2.23-.05,2.83-.54-.25-.42-.5-.84-.75-1.26-.43.35-.96.5-1.53.35-.99-.25-1.44-1.18-1.08-2.27.35-1.08,1.27-1.63,2.25-1.39.56.14.93.48,1.09.99.46-.26.92-.52,1.37-.78-.23-.67-.82-1.39-2.07-1.7Zm4.14-1.5c-.86,2.94-1.75,5.87-2.67,8.78.55.12,1.1.24,1.64.35.44-1.43.87-2.86,1.3-4.29.4-.33,1-.61,1.63-.5.7.12,1.07.47.81,1.37-.38,1.31-.76,2.61-1.15,3.91.55.1,1.1.19,1.65.27.45-1.53.88-3.06,1.32-4.59.35-1.26-.08-2.13-1.43-2.34-1.01-.16-1.92.2-2.46.62.32-1.09.64-2.18.95-3.28-.53-.1-1.07-.2-1.6-.3Z" fill="#010101"/>
  <path d="m60.37,56.95c-.02-.05-.03-.08-.05-.13-1.24-3.59-5.4-5.42-9.28-4.03-.06.02-.09.03-.14.05-3.87,1.39-5.92,5.45-4.59,9.01.02.05.03.08.05.13,1.33,3.56,5.46,5.3,9.25,3.94.05-.02.09-.03.14-.05,3.79-1.36,5.86-5.33,4.62-8.92Zm-4.26,6.02c-.88.31-1.74.62-2.61.94-.34-.94-.68-1.88-1.03-2.84-1.03.37-2.03.74-3.05,1.11-.3-.83-.6-1.63-.9-2.46,1.01-.37,2.02-.74,3.05-1.11-.35-.96-.69-1.9-1.03-2.86.89-.32,1.76-.64,2.66-.95.34.94.67,1.88,1.02,2.85,1.03-.37,2.04-.72,3.07-1.08.29.83.58,1.64.87,2.48-1.01.35-2.01.71-3.05,1.08.35.97.68,1.9,1.02,2.85Z" fill="#ed2224"/>
</svg>